<svg xmlns="http://www.w3.org/2000/svg" viewBox="0 0 400 75.48">
  <path fill="#001489" d="M180.88 0h-35.54c-4.88 0-9.41 3.58-10.12 8l-9.57 59.47c-.72 4.42 2.66 7.99 7.54 7.99h35.53c4.88 0 9.4-3.57 10.12-7.99l2.73-16.94a.91.91 0 0 0-.92-1.07h-15.69c-.6 0-1.17.48-1.27 1.07l-1.25 7.8c-.23 1.42-1.69 2.58-3.27 2.58h-11.74c-1.57 0-2.66-1.16-2.43-2.58l6.64-41.21c.22-1.42 1.69-2.57 3.26-2.57h11.74c1.57 0 2.66 1.15 2.43 2.57l-1.24 7.81a.91.91 0 0 0 .91 1.08h15.7c.7 0 1.27-.5 1.26-1.08L188.41 8c.72-4.42-2.66-8-7.53-8zM117 0H87.73c-4.88 0-10.02 3.57-11.51 7.99L53.9 74.42c-.19.58.14 1.04.74 1.04h15.7c.6 0 1.26-.47 1.45-1.04l7.52-22.43a1.63 1.63 0 0 1 1.45-1.03h17.8c.6 0 1.02.48.92 1.07l-1.86 11.53a.91.91 0 0 0 .93 1.08h15.69c.6 0 1.17-.48 1.27-1.08L117.04 8c.7-4.42-2.67-8-7.55-8zm-11.8 17.12L102.28 35.3c-.1.6-.66 1.09-1.27 1.09H85.65c-.6 0-.93-.47-.74-1.04l6.13-18.24a4.14 4.14 0 0 1 3.71-2.57h7.92c1.57 0 2.66 1.15 2.43 2.57zM242.76 16.76l2.53-15.67A.91.91 0 0 0 244.18 0h-46.62c-.6 0-1.17.48-1.27 1.08l-2.53 15.67a.91.91 0 0 0 .92 1.08h12.99c.6 0 1.02.49.92 1.08l-8.92 55.47a.91.91 0 0 0 .92 1.08h15.7c.6 0 1.17-.48 1.27-1.08l8.92-55.46c.1-.6.66-1.08 1.27-1.08h13.56c.6 0 1.17-.49 1.27-1.08zM325.04 0h-35.54c-4.88 0-9.4 3.55-10.11 7.9l-9.58 58.83c-.7 4.37 2.66 7.9 7.53 7.9h35.55c4.88 0 9.4-3.53 10.12-7.9l9.57-58.83c.72-4.36-2.66-7.9-7.53-7.9zm-11.8 16.94l-6.63 40.77c-.24 1.4-1.69 2.55-3.26 2.55h-11.75c-1.58 0-2.66-1.14-2.44-2.55l6.63-40.77c.24-1.4 1.7-2.55 3.27-2.55h11.75c1.57 0 2.65 1.14 2.43 2.55zM399.07 0h-15.7c-.6 0-1.17.49-1.27 1.08l-5.56 34.55c-.1.6-.4.64-.69.12L357.33.98a2.01 2.01 0 0 0-1.61-.97h-9.97c-.7 0-1.27.5-1.27 1.08L332.64 74.4a.91.91 0 0 0 .92 1.08h15.7c.6 0 1.17-.48 1.27-1.08l5.56-34.54c.1-.6.41-.64.69-.11l18.53 34.77a2.01 2.01 0 0 0 1.61.97h9.97c.7 0 1.27-.5 1.27-1.08L399.98 1.09a.91.91 0 0 0-.9-1.08zM268.82 0h-15.69c-.6 0-1.17.49-1.27 1.08l-11.79 73.3a.91.91 0 0 0 .9 1.08h15.7c.7 0 1.27-.5 1.27-1.08L269.74 1.09A.91.91 0 0 0 268.82 0z"/>
  <path fill="#62b5e5" d="M58.46 0h8.58c.6 0 .93.46.74 1.03L43.14 74.43a1.63 1.63 0 0 1-1.45 1.04h-8.58c-.6 0-.94-.47-.75-1.04L57.02 1.04A1.63 1.63 0 0 1 58.46 0zM40.52 0h4.99c.6 0 .94.46.75 1.03L21.59 74.43a1.63 1.63 0 0 1-1.44 1.04h-5c-.6 0-.93-.47-.74-1.04L39.05 1.04A1.63 1.63 0 0 1 40.52 0zM28.29 1.04c.2-.57-.14-1.03-.74-1.03h-1.53c-.75 0-1.08.38-1.32 1.03L.06 74.43c-.2.58.14 1.04.74 1.04H2.34c.72 0 1.08-.34 1.31-1.04L28.29 1.04z"/>
</svg>