<svg xmlns="http://www.w3.org/2000/svg" viewBox="0 0 137 137">
  <path d="M0,68.5C0,30.668,30.669,0,68.5,0s68.501,30.668,68.501,68.5-30.669,68.5-68.501,68.5S0,106.332,0,68.5" fill="#f36f21"/>
  <path d="M71.016,88.608c1.418-.238,2.324-1.097,2.678-2.336.278,1.188,1.274,1.681,2.59,1.452,0,0,3.504-.603,4.582-.817l12.469-2.227c1.416-.238,2.321-1.093,2.676-2.332.277,1.187,1.263,1.652,2.58,1.42.019-.003,13.829-2.43,13.829-2.43,4.914-.855,6.41-3.818,6.89-6.411l2.964-15.251c1.317-6.465.108-9.762-2.194-12.502-1.788-2.133-5.082-4.216-10.883-3.954-5.456.246-10.601,2.835-14.413,5.797-3.072-2.629-10.944-3.319-19.195,2.802-.657-1.239-2.363-1.803-4.947-1.391-.071.013-11.973,2.047-11.973,2.047l-.753,3.193c-2.91-1.883-8.35-2.441-13.168-.513l.856-3.486c1.125-4.024.57-6.502-1.114-8.128-1.558-1.504-3.585-2.297-7.667-1.63l-6.551,1.14c-5.131.933-6.823,3.453-7.801,7.198l-6.957,27.057c-1.917,7.41-.212,11.578,2.182,14.152,4.191,4.501,10.978,5.596,21.156,3.839,5.615-.97,10.782-3.039,15.193-6.034.685,1.176,2.389,1.89,5.342,1.357l11.629-2.012Z" fill="#21409a"/>
  <path d="M115.171,68.588l1.989-9.935c1.362-6.697-1.365-10.509-7.725-10.221-6.06.275-12.496,4.651-15.259,7.351-1.006-3.86-6.287-4.611-12.466-1.792-2.722,1.243-5.708,3.084-7.753,5.039.728-3.064-1.234-3.677-3.299-3.346l-7.948,1.379-1.509,6.775-1.132.156c-1.945-4.022-6.641-5.728-13.091-4.587-3.767.667-7.156,2.469-10.021,5.171l3.621-14.314c.75-2.676-.613-3.697-2.913-3.32l-14.917,2.615c3.243.846,4.206,3.603,3.428,6.676l-5.779,22.392c-2.996,11.58,6.021,13.524,17.567,11.529,6.332-1.093,12.051-3.821,16.343-7.697,1.08-.976,2.267-2.233,3.004-3.181l-.656,3.006c-.596,2.356.402,3.486,2.619,3.085l9.136-1.596,3.282-14.834c.675-3.094,2.355-5.652,4.945-6.899,3.039-1.463,6.183-.78,5.174,3.613l-2.638,12.29c-.622,3.083.871,3.795,2.657,3.48l9.198-1.631,3.186-14.784c.673-3.092,2.353-5.648,4.945-6.897,3.038-1.463,6.181-.78,5.174,3.613l-3.427,16.346,18.363-3.234c-3.471-.401-4.795-2.846-4.098-6.248M37.655,83.378c-3.162.559-5.21-.576-4.174-4.839l1.82-7.333c2.018-2.112,4.602-3.491,6.939-3.905,3.161-.558,5.12.682,5.123,3.417.005,6.074-4.66,11.768-9.708,12.66" fill="#fff"/>
  <path d="M54.415,75.667c-.185-1.289.325-2.543,1.667-3.201.951,1.683,2.203,3.299,3.603,4.811-.609.333-1.337.601-2.255.643-1.646.075-2.829-.956-3.015-2.253M67.762,79.138c-1.081-.719-2.49-1.785-3.693-3.027.672-.942,1.465-2.272,1.86-3.344.961-2.607-.301-3.155-3.284-1.716.47.421.527,1.612-.285,3.19-1.083-1.266-2.06-2.602-2.758-3.82-1.763-3.089-.756-4.753.587-5.116,1.463-.394,2.439.492,2.484,1.569.508-.344,1.514-1.449.645-2.866-.831-1.35-2.75-1.912-5.155-1.138-2.671.859-4.457,3.871-3.152,7.207-3.716,1.32-5.652,4.291-4.859,7.771.733,3.211,4.088,3.788,6.068,3.575,1.976-.212,3.755-1.108,5.242-2.348.35.333.706.657,1.065.975l5.235-.912Z" fill="#f36f21"/>
</svg>
