<svg xmlns="http://www.w3.org/2000/svg" width="300" height="39" viewBox="0 0 200 26">
  <path d="M194.012 15.4599C196.619 14.3334 198.378 11.6915 198.378 8.48883C198.378 3.90866 194.612 0.388672 190.032 0.388672H179.75V24.9351H185.137V16.7636H188.765L193.872 24.9351H199.999L194.012 15.4599ZM189.434 11.9744H185.137V5.31814H189.897C191.619 5.31814 192.962 6.65627 192.962 8.55771C192.957 10.6363 191.547 11.9744 189.434 11.9744Z" fill="#23252A"/>
  <path d="M164.433 0C157.182 0 151.33 5.59853 151.33 12.7148C151.33 19.831 157.177 25.4271 164.433 25.4271C171.69 25.4271 177.532 19.863 177.532 12.7148C177.532 5.56656 171.722 0 164.433 0ZM164.433 20.4976C160.099 20.4976 156.754 17.1154 156.754 12.7148C156.754 8.41748 160.099 4.92947 164.433 4.92947C168.768 4.92947 172.111 8.45192 172.111 12.7148C172.111 17.0465 168.728 20.4976 164.433 20.4976Z" fill="#23252A"/>
  <path d="M153.166 0.38623H146.721L137.246 11.3398V0.38623H131.822V24.9352H137.246V18.242L140.065 15.1082L147.073 24.9352H153.446L143.762 11.2684L153.166 0.38623Z" fill="#23252A"/>
  <path d="M115.343 0.388709L105.744 23.6143L100.579 15.4551C103.184 14.3285 104.945 11.6866 104.945 8.48395C104.945 3.90378 101.177 0.383789 96.5989 0.383789H86.3242V24.9303H91.7137V16.7637H95.3419L100.448 24.9352H110.976L112.632 20.815H122.88L124.535 24.9352H130.311L120.166 0.388709H115.343ZM96.011 11.9744H91.7137V5.31817H96.4685C98.1904 5.31817 99.531 6.65631 99.531 8.55775C99.531 10.6363 98.1239 11.9744 96.011 11.9744ZM114.182 16.4808L117.773 7.57136L121.33 16.4808H114.182Z" fill="#23252A"/>
  <path d="M66.252 5.31815H72.9082V24.9352H78.3321V5.31815H84.8826V0.38623H66.252V5.31815Z" fill="#23252A"/>
  <path d="M59.565 15.6371L47.8022 0.38623H42.9785V24.9352H48.2253V9.26123L60.3743 24.9352H64.8118V0.38623H59.565V15.6371Z" fill="#23252A"/>
  <path d="M29.3731 14.7565H39.9724V9.9303H29.3731V5.31815H40.7128V0.38623H23.9492V24.9352H40.9588V20.0032H29.3731V14.7565Z" fill="#23252A"/>
  <path d="M13.2067 20.3919C8.84057 20.3919 5.42389 17.1154 5.42389 12.6779C5.42389 8.2404 8.84057 4.91965 13.2067 4.91965C14.321 4.91712 15.4244 5.13833 16.4516 5.57015C17.4788 6.00198 18.4088 6.63565 19.1865 7.43358L21.9612 3.37981C19.5675 1.19944 16.4446 -0.00622711 13.2067 2.41882e-05C5.91585 2.41882e-05 0 5.35258 0 12.6779C0 20.0032 5.91585 25.3213 13.2067 25.3213C16.444 25.3281 19.5671 24.1253 21.9637 21.9489L19.1865 17.8927C18.4076 18.6881 17.4771 19.3191 16.4499 19.7484C15.4228 20.1776 14.32 20.3965 13.2067 20.3919V20.3919Z" fill="#23252A"/>
</svg>
