<svg xmlns="http://www.w3.org/2000/svg" viewBox="0 0 676 662.3">
  <defs>
    <style>
      .st0 { fill: #f5e52a; }
      .st1 { fill: #be242e; }
      .st3 { fill: none; stroke: #be242e; stroke-width: 32px; stroke-miterlimit: 10; }
    </style>
    <mask id="mask" x="-457.8" y="-240" width="1582" height="1181.8" maskUnits="userSpaceOnUse">
      <g>
        <path class="st1" d="M522.3,226.2h-120c-9.3,0-16.6,7.5-16.6,16.6v219.3c0,9.2,7.3,16.6,16.6,16.6h50.8c9.3,0,16.6-7.5,16.6-16.6v-58.8c0-9.3,7.5-16.6,16.6-16.6h33.6c10.7,0,18.8-8.4,18.8-18.8v-30.1c0-10.4-8.2-18.8-18.8-18.8h-45.3c-2.8,0-5-2.2-5-5v-12c0-2.8,2.2-5,5-5h47.5c9.3,0,16.6-7.5,16.6-16.6v-37.4c0-9.2-7.1-16.6-16.6-16.6Z"/>
        <path class="st1" d="M217.4,226.2h-86c-69.7,0-126.3,56.5-126.3,126.3h0c0,69.7,56.3,126.3,126.3,126.3h86c9.2,0,16.6-7.5,16.6-16.6v-117.7c0-9.2-7.2-16.6-16.6-16.6h-61c-9.6,0-16.6,7.5-16.6,16.6v22.4c0,9.2,7.5,16.6,16.6,16.6h0c5,0,9.1,4.1,9.1,9.1h0c0,5.1-4,9.2-9.1,9.2h-30.2c-19.1,0-34.6-27.7-34.6-46.8v-7.8c0-16.3,16.2-43.9,36.3-43.9h89.6c9.2,0,16.6-7.3,16.6-16.6v-43.8c0-9.2-7.3-16.6-16.6-16.6Z"/>
        <path class="st1" d="M337.7,349.4h-56.6c-9.3,0-16.6,7.5-16.6,16.6v96.1c0,9.2,7.3,16.6,16.6,16.6h56.6c9.3,0,16.6-7.5,16.6-16.6v-96.1c0-9.2-7.4-16.6-16.6-16.6Z"/>
        <path class="st1" d="M309.4,223h0c-27.6,0-49.9,22.4-49.9,49.9v8c0,27.6,22.4,49.9,49.9,49.9h0c27.6,0,49.9-22.4,49.9-49.9v-8c0-27.6-22.4-49.9-49.9-49.9Z"/>
        <path class="st1" d="M639.5,349.4h-56.6c-9.5,0-16.6,7.5-16.6,16.6v96.1c0,9.2,7.1,16.6,16.6,16.6h56.6c9.8,0,16.6-7.5,16.6-16.6v-96.1c0-9.2-7.2-16.6-16.6-16.6Z"/>
        <path class="st1" d="M611.2,223h0c-27.6,0-49.9,22.4-49.9,49.9v8c0,27.6,22.1,49.9,49.9,49.9h0c27.6,0,49.9-21.9,49.9-49.9v-8c0-27.7-22.4-49.9-49.9-49.9Z"/>
      </g>
    </mask>
  </defs>
  <path class="st0" d="M643.4,514.8c1.3,2.2-.2,5.1-2.9,5.1l-304.1-.2-304.1-.2c-2.7,0-4.2-2.8-2.9-5.1l152.1-251.7L333.9,10.7c1.3-2.1,4.4-2.2,5.7,0l152,252.2,151.8,251.9Z"/>
  <g>
    <g mask="url(#mask)">
      <path class="st3" d="M615.6,186.1c-9.1-21.9-23.5-41.5-42.7-56.2-68.6-52.4-174.2-32-233.5,43.1-59.3-75-164.9-95.5-233.5-43.1-19.2,14.7-33.6,34.3-42.7,56.2C-.7,338.8,154.8,493,339.4,632.5c184.6-139.4,340.1-293.6,276.2-446.4Z"/>
    </g>
  </g>
  <g>
    <g>
      <path class="st1" d="M522.3,226.2h-120c-9.3,0-16.6,7.5-16.6,16.6v219.3c0,9.2,7.3,16.6,16.6,16.6h50.8c9.3,0,16.6-7.5,16.6-16.6v-58.8c0-9.3,7.5-16.6,16.6-16.6h33.6c10.7,0,18.8-8.4,18.8-18.8v-30.1c0-10.4-8.2-18.8-18.8-18.8h-45.3c-2.8,0-5-2.2-5-5v-12c0-2.8,2.2-5,5-5h47.5c9.3,0,16.6-7.5,16.6-16.6v-37.4c0-9.2-7.1-16.6-16.6-16.6Z"/>
      <path class="st1" d="M217.4,226.2h-86c-69.7,0-126.3,56.5-126.3,126.3h0c0,69.7,56.3,126.3,126.3,126.3h86c9.2,0,16.6-7.5,16.6-16.6v-117.7c0-9.2-7.2-16.6-16.6-16.6h-61c-9.6,0-16.6,7.5-16.6,16.6v22.4c0,9.2,7.5,16.6,16.6,16.6h0c5,0,9.1,4.1,9.1,9.1h0c0,5.1-4,9.2-9.1,9.2h-30.2c-19.1,0-34.6-27.7-34.6-46.8v-7.8c0-16.3,16.2-43.9,36.3-43.9h89.6c9.2,0,16.6-7.3,16.6-16.6v-43.8c0-9.2-7.3-16.6-16.6-16.6Z"/>
      <path class="st1" d="M337.7,349.4h-56.6c-9.3,0-16.6,7.5-16.6,16.6v96.1c0,9.2,7.3,16.6,16.6,16.6h56.6c9.3,0,16.6-7.5,16.6-16.6v-96.1c0-9.2-7.4-16.6-16.6-16.6Z"/>
      <path class="st1" d="M309.4,223h0c-27.6,0-49.9,22.4-49.9,49.9v8c0,27.6,22.4,49.9,49.9,49.9h0c27.6,0,49.9-22.4,49.9-49.9v-8c0-27.6-22.4-49.9-49.9-49.9Z"/>
      <path class="st1" d="M639.5,349.4h-56.6c-9.5,0-16.6,7.5-16.6,16.6v96.1c0,9.2,7.1,16.6,16.6,16.6h56.6c9.8,0,16.6-7.5,16.6-16.6v-96.1c0-9.2-7.2-16.6-16.6-16.6Z"/>
      <path class="st1" d="M611.2,223h0c-27.6,0-49.9,22.4-49.9,49.9v8c0,27.6,22.1,49.9,49.9,49.9h0c27.6,0,49.9-21.9,49.9-49.9v-8c0-27.7-22.4-49.9-49.9-49.9Z"/>
    </g>
  </g>
</svg>
