<?xml version="1.0" encoding="UTF-8" standalone="no"?>
<svg xmlns:dc="http://purl.org/dc/elements/1.1/" xmlns:cc="http://creativecommons.org/ns#" xmlns:rdf="http://www.w3.org/1999/02/22-rdf-syntax-ns#" xmlns:svg="http://www.w3.org/2000/svg" xmlns="http://www.w3.org/2000/svg" xmlns:sodipodi="http://sodipodi.sourceforge.net/DTD/sodipodi-0.dtd" xmlns:inkscape="http://www.inkscape.org/namespaces/inkscape" width="1000" height="321.65314" viewBox="0 0 264.58333 85.104061" version="1.1" id="svg8" inkscape:version="0.92.4 (5da689c313, 2019-01-14)" sodipodi:docname="A.svg">
  <defs id="defs2">
    <clipPath clipPathUnits="userSpaceOnUse" id="clipPath1283">
      <path d="M 0,0 H 595.276 V 841.89 H 0 Z" id="path1281" inkscape:connector-curvature="0" />
    </clipPath>
  </defs>
  <sodipodi:namedview id="base" pagecolor="#ffffff" bordercolor="#666666" borderopacity="1.0" inkscape:pageopacity="0.0" inkscape:pageshadow="2" inkscape:zoom="0.35" inkscape:cx="86.380532" inkscape:cy="27.784581" inkscape:document-units="px" inkscape:current-layer="layer1" showgrid="false" units="px" inkscape:window-width="1920" inkscape:window-height="1017" inkscape:window-x="1912" inkscape:window-y="-8" inkscape:window-maximized="1" fit-margin-top="0" fit-margin-left="0" fit-margin-right="0" fit-margin-bottom="0" />
  <metadata id="metadata5">
    <rdf:RDF>
      <cc:Work rdf:about="">
        <dc:format>image/svg+xml</dc:format>
        <dc:type rdf:resource="http://purl.org/dc/dcmitype/StillImage" />
        <dc:title></dc:title>
      </cc:Work>
    </rdf:RDF>
  </metadata>
  <g inkscape:label="Layer 1" inkscape:groupmode="layer" id="layer1" transform="translate(-82.978484,-71.080601)">
    <g id="g1862" transform="matrix(2.0419982,0,0,-2.0419982,83.521656,155.1405)">
      <path d="m 0,0 c -0.174,0.219 -0.26,0.514 -0.26,0.855 0,9.463 -0.004,17.7 -0.006,27.163 0.012,0.628 0.44,1.339 1.016,1.716 12.319,7.775 26.784,10.822 41.222,10.822 7.899,0 15.791,-0.912 23.323,-2.463 0.307,-0.041 0.562,-0.212 0.729,-0.442 0.17,-0.233 0.26,-0.525 0.261,-0.83 0,-0.065 -0.004,-0.131 -0.013,-0.198 C 66.218,36.212 64.889,20.446 64.23,12.604 64.01,9.988 63.865,8.254 63.864,8.25 L 63.841,7.977 63.574,8.035 C 53.942,10.098 45.587,11.142 38.065,11.142 23.946,11.14 12.762,7.473 1.527,-0.065 1.258,-0.245 0.985,-0.342 0.723,-0.342 H 0.714 C 0.434,-0.342 0.171,-0.217 0,0" style="fill:#f79f0e;fill-opacity:1;fill-rule:nonzero;stroke:none" id="path1864" inkscape:connector-curvature="0" />
    </g>
    <g id="g2536" transform="matrix(2.0419982,0,0,-2.0419982,83.521656,155.1405)">
      <path d="m 0,0 c -0.174,0.219 -0.26,0.514 -0.26,0.855 0,9.463 -0.004,17.7 -0.006,27.163 0.012,0.628 0.44,1.339 1.016,1.716 12.319,7.775 26.784,10.822 41.222,10.822 7.899,0 15.791,-0.912 23.323,-2.463 0.307,-0.041 0.562,-0.212 0.729,-0.442 0.17,-0.233 0.26,-0.525 0.261,-0.83 0,-0.065 -0.004,-0.131 -0.013,-0.198 C 66.218,36.212 64.889,20.446 64.23,12.604 64.01,9.988 63.865,8.254 63.864,8.25 L 63.841,7.977 63.574,8.035 C 53.942,10.098 45.587,11.142 38.065,11.142 23.946,11.14 12.762,7.473 1.527,-0.065 1.258,-0.245 0.985,-0.342 0.723,-0.342 H 0.714 C 0.434,-0.342 0.171,-0.217 0,0" style="fill:#f79f0e;fill-opacity:1;fill-rule:nonzero;stroke:none" id="path2538" inkscape:connector-curvature="0" />
    </g>
    <g id="g2540" transform="matrix(2.0419982,0,0,-2.0419982,218.122,145.94294)">
      <path d="M 0,0 0.143,-0.033" style="fill:none;stroke:#d81a96;stroke-width:0.094;stroke-linecap:butt;stroke-linejoin:miter;stroke-miterlimit:4;stroke-dasharray:none;stroke-opacity:1" id="path2542" inkscape:connector-curvature="0" />
    </g>
    <g id="g2544" transform="matrix(2.0419982,0,0,-2.0419982,285.33558,156.08869)">
      <path d="M 0,0 H 0.003" style="fill:none;stroke:#d81a96;stroke-width:0.094;stroke-linecap:butt;stroke-linejoin:miter;stroke-miterlimit:4;stroke-dasharray:none;stroke-opacity:1" id="path2546" inkscape:connector-curvature="0" />
    </g>
    <g id="g2548" transform="matrix(2.0419982,0,0,-2.0419982,112.08575,118.99456)">
      <path d="M 0,0 -0.035,0.11 C -0.017,0.075 0.002,0.041 0.021,0.007 0.014,0.005 0.007,0.002 0,0 m 72.867,-16.624 c -0.008,0.083 -0.057,0.139 -0.175,0.175 -0.008,0.083 -0.057,0.139 -0.175,0.175 -0.008,0.083 -0.057,0.139 -0.175,0.175 -0.008,0.083 -0.057,0.139 -0.175,0.175 -0.008,0.083 -0.057,0.139 -0.175,0.175 -0.008,0.083 -0.057,0.139 -0.175,0.175 -0.008,0.083 -0.057,0.139 -0.175,0.175 -0.008,0.083 -0.057,0.139 -0.175,0.175 -0.008,0.083 -0.057,0.139 -0.175,0.175 -0.008,0.083 -0.057,0.139 -0.175,0.175 -0.008,0.083 -0.057,0.139 -0.175,0.175 -0.008,0.083 -0.057,0.139 -0.175,0.175 -0.008,0.083 -0.057,0.139 -0.175,0.175 -0.008,0.083 -0.057,0.139 -0.175,0.175 -0.008,0.083 -0.057,0.139 -0.175,0.175 -0.008,0.083 -0.057,0.139 -0.175,0.175 -0.008,0.083 -0.057,0.139 -0.175,0.175 -0.008,0.083 -0.057,0.139 -0.175,0.175 -0.008,0.083 -0.057,0.139 -0.175,0.175 -0.008,0.083 -0.057,0.139 -0.175,0.175 -0.008,0.083 -0.057,0.139 -0.175,0.175 -0.008,0.083 -0.057,0.139 -0.175,0.175 -0.008,0.083 -0.057,0.139 -0.175,0.175 -0.008,0.083 -0.057,0.139 -0.175,0.175 -0.008,0.083 -0.057,0.139 -0.175,0.175 -0.008,0.083 -0.057,0.139 -0.175,0.175 -0.008,0.083 -0.057,0.139 -0.175,0.175 -0.008,0.083 -0.057,0.139 -0.175,0.175 -0.008,0.083 -0.057,0.139 -0.175,0.175 -0.008,0.083 -0.058,0.139 -0.175,0.175 -0.008,0.083 -0.057,0.139 -0.175,0.175 -0.008,0.083 -0.057,0.139 -0.175,0.175 -0.008,0.083 -0.058,0.139 -0.175,0.175 -0.008,0.083 -0.057,0.139 -0.175,0.175 -0.008,0.083 -0.057,0.139 -0.175,0.175 -0.008,0.083 -0.057,0.139 -0.175,0.175 -0.008,0.083 -0.057,0.139 -0.175,0.175 -0.008,0.083 -0.057,0.139 -0.175,0.175 -0.008,0.083 -0.057,0.139 -0.175,0.175 -0.008,0.083 -0.058,0.139 -0.175,0.175 -0.008,0.083 -0.057,0.139 -0.175,0.175 -0.008,0.083 -0.058,0.139 -0.175,0.175 -0.008,0.083 -0.058,0.139 -0.175,0.175 -0.008,0.083 -0.058,0.139 -0.175,0.175 -0.008,0.083 -0.058,0.139 -0.175,0.175 -0.008,0.083 -0.058,0.139 -0.175,0.175 -0.008,0.083 -0.058,0.139 -0.175,0.175 -0.008,0.083 -0.058,0.139 -0.175,0.175 -0.008,0.083 -0.058,0.139 -0.175,0.175 -0.008,0.083 -0.058,0.139 -0.175,0.175 -0.008,0.083 -0.058,0.139 -0.175,0.175 -0.008,0.083 -0.058,0.139 -0.175,0.175 -0.008,0.083 -0.058,0.139 -0.175,0.175 -0.008,0.083 -0.058,0.139 -0.175,0.175 -0.008,0.083 -0.058,0.139 -0.175,0.175 -0.008,0.083 -0.058,0.139 -0.175,0.175 -0.008,0.083 -0.058,0.139 -0.176,0.175 -0.008,0.083 -0.057,0.139 -0.175,0.175 -0.007,0.083 -0.057,0.139 -0.174,0.175 -0.008,0.083 -0.058,0.139 -0.176,0.175 -0.007,0.083 -0.057,0.139 -0.175,0.175 -0.007,0.083 -0.057,0.139 -0.175,0.175 -0.007,0.083 -0.057,0.139 -0.175,0.175 -0.007,0.083 -0.057,0.139 -0.175,0.175 -0.007,0.083 -0.057,0.139 -0.175,0.175 -0.007,0.083 -0.057,0.139 -0.175,0.175 -0.007,0.083 -0.057,0.139 -0.175,0.175 -0.008,0.083 -0.057,0.139 -0.175,0.175 -0.008,0.084 -0.057,0.139 -0.175,0.175 -0.008,0.084 -0.057,0.139 -0.175,0.175 -0.008,0.084 -0.057,0.139 -0.175,0.175 -0.008,0.084 -0.057,0.139 -0.175,0.176 -0.008,0.083 -0.057,0.138 -0.175,0.175 -0.008,0.083 -0.057,0.138 -0.175,0.175 -0.008,0.083 -0.057,0.139 -0.175,0.175 -0.008,0.083 -0.057,0.139 -0.175,0.175 -0.008,0.083 -0.057,0.139 -0.175,0.175 -0.008,0.083 -0.057,0.139 -0.175,0.175 -0.008,0.083 -0.057,0.139 -0.175,0.175 -0.008,0.083 -0.057,0.139 -0.175,0.175 -0.008,0.083 -0.057,0.139 -0.175,0.175 -0.008,0.083 -0.057,0.139 -0.175,0.175 -0.008,0.083 -0.057,0.139 -0.175,0.175 -0.008,0.083 -0.057,0.139 -0.175,0.175 -0.008,0.083 -0.057,0.139 -0.175,0.175 -0.008,0.083 -0.057,0.139 -0.175,0.175 -0.008,0.083 -0.057,0.139 -0.175,0.175 -0.008,0.083 -0.057,0.139 -0.175,0.175 -0.008,0.083 -0.057,0.139 -0.175,0.175 -0.008,0.083 -0.057,0.139 -0.175,0.175 -0.008,0.083 -0.057,0.139 -0.175,0.175 -0.008,0.083 -0.057,0.139 -0.175,0.175 -0.008,0.083 -0.057,0.139 -0.175,0.175 -0.008,0.083 -0.057,0.139 -0.175,0.175 -0.008,0.083 -0.057,0.139 -0.175,0.175 C 56.233,0.085 56.184,0.141 56.066,0.177 56.058,0.26 56.009,0.316 55.891,0.352 55.883,0.435 55.834,0.491 55.716,0.527 55.708,0.61 55.659,0.666 55.541,0.702 55.533,0.785 55.484,0.841 55.366,0.877 55.358,0.96 55.309,1.016 55.191,1.052 55.183,1.135 55.134,1.191 55.016,1.227 55.008,1.31 54.959,1.366 54.841,1.402 54.833,1.485 54.784,1.541 54.666,1.577 54.658,1.66 54.609,1.716 54.491,1.752 54.483,1.835 54.434,1.891 54.316,1.927 54.308,2.01 54.259,2.066 54.141,2.102 54.133,2.185 54.083,2.241 53.966,2.277 53.958,2.36 53.909,2.416 53.791,2.452 53.783,2.535 53.733,2.591 53.616,2.627 53.608,2.71 53.558,2.766 53.441,2.802 53.433,2.885 53.383,2.941 53.266,2.977 53.258,3.06 53.208,3.116 53.091,3.152 53.083,3.235 53.034,3.291 52.916,3.327 52.908,3.41 52.859,3.466 52.741,3.502 52.733,3.585 52.684,3.641 52.566,3.677 52.558,3.76 52.509,3.816 52.391,3.852 52.383,3.935 52.333,3.991 52.216,4.027 52.208,4.11 52.159,4.166 52.041,4.202 52.033,4.285 51.983,4.341 51.866,4.377 51.858,4.46 51.808,4.516 51.691,4.552 51.683,4.635 51.633,4.691 51.516,4.727 51.508,4.81 51.458,4.866 51.341,4.902 51.333,4.985 51.283,5.041 51.166,5.077 51.158,5.16 51.108,5.216 50.991,5.252 50.983,5.335 50.933,5.391 50.816,5.427 50.808,5.51 50.758,5.566 50.641,5.602 50.633,5.685 50.583,5.741 50.466,5.777 50.458,5.86 50.408,5.916 50.291,5.952 50.283,6.035 50.233,6.091 50.116,6.127 50.108,6.21 50.058,6.266 49.941,6.302 49.933,6.385 49.883,6.441 49.766,6.477 49.758,6.56 49.708,6.616 49.591,6.652 49.583,6.735 49.533,6.791 49.416,6.827 49.407,6.91 49.358,6.966 49.24,7.002 49.232,7.085 49.183,7.141 49.065,7.177 49.057,7.26 49.008,7.316 48.89,7.352 48.882,7.435 48.833,7.491 48.715,7.527 48.708,7.61 48.658,7.666 48.54,7.702 48.532,7.785 48.483,7.841 48.365,7.877 48.358,7.96 48.308,8.016 48.19,8.052 48.183,8.135 48.133,8.191 48.015,8.227 48.008,8.31 47.958,8.366 47.84,8.402 47.833,8.485 47.783,8.541 47.665,8.577 47.657,8.66 47.608,8.716 47.49,8.752 47.482,8.836 47.433,8.891 47.315,8.927 47.307,9.011 47.258,9.066 47.14,9.102 47.132,9.186 47.083,9.241 46.965,9.277 46.957,9.361 46.908,9.416 46.79,9.453 46.782,9.536 46.733,9.591 46.615,9.628 46.607,9.711 46.558,9.766 46.44,9.803 46.426,9.95 46.279,10.011 45.857,10.031 45.173,10.065 44.568,9.944 44.046,9.637 44.039,9.643 44.032,9.65 44.024,9.656 43.97,9.719 43.912,9.777 43.849,9.83 c -0.054,0.062 -0.112,0.121 -0.175,0.174 -0.054,0.062 -0.112,0.121 -0.175,0.174 -0.054,0.062 -0.112,0.121 -0.175,0.173 -0.054,0.063 -0.112,0.122 -0.175,0.174 -0.054,0.063 -0.112,0.121 -0.175,0.174 -0.054,0.062 -0.112,0.121 -0.175,0.174 -0.054,0.062 -0.112,0.121 -0.175,0.174 -0.054,0.062 -0.112,0.121 -0.175,0.173 -0.054,0.063 -0.112,0.122 -0.175,0.174 -0.054,0.063 -0.112,0.121 -0.175,0.174 -0.054,0.063 -0.112,0.121 -0.175,0.174 -0.054,0.062 -0.112,0.121 -0.175,0.174 -0.054,0.062 -0.112,0.121 -0.175,0.174 -0.054,0.062 -0.112,0.121 -0.175,0.173 -0.054,0.063 -0.112,0.121 -0.175,0.174 -0.054,0.063 -0.112,0.121 -0.175,0.174 -0.054,0.062 -0.112,0.121 -0.175,0.174 -0.054,0.062 -0.112,0.121 -0.175,0.174 -0.054,0.062 -0.112,0.121 -0.175,0.173 -0.054,0.063 -0.112,0.122 -0.175,0.174 -0.054,0.063 -0.112,0.121 -0.175,0.174 -0.054,0.062 -0.112,0.121 -0.175,0.174 -0.054,0.062 -0.112,0.121 -0.175,0.174 -0.054,0.062 -0.112,0.121 -0.175,0.173 -0.054,0.063 -0.112,0.122 -0.175,0.174 -0.054,0.063 -0.112,0.121 -0.175,0.174 -0.054,0.062 -0.112,0.121 -0.175,0.174 -0.054,0.062 -0.112,0.121 -0.175,0.174 -0.054,0.062 -0.112,0.121 -0.175,0.174 -0.265,0.305 -0.645,0.497 -1.092,0.554 -0.96,0.12 -1.777,-0.435 -1.923,-1.595 -0.091,-0.729 0.134,-1.292 0.552,-1.639 0.054,-0.063 0.112,-0.121 0.175,-0.174 0.054,-0.062 0.112,-0.121 0.175,-0.174 0.054,-0.062 0.112,-0.121 0.175,-0.174 0.054,-0.062 0.112,-0.121 0.175,-0.173 0.054,-0.063 0.112,-0.122 0.175,-0.174 0.054,-0.063 0.112,-0.121 0.175,-0.174 0.054,-0.062 0.112,-0.121 0.175,-0.174 0.054,-0.062 0.112,-0.121 0.175,-0.174 0.054,-0.062 0.112,-0.121 0.175,-0.173 0.038,-0.044 0.077,-0.085 0.119,-0.123 -0.83,0.012 -2.384,-0.231 -2.66,-2.16 C 35.29,7.964 35.23,7.519 35.168,7.039 35.112,7.097 35.055,7.153 34.997,7.208 34.94,7.268 34.881,7.325 34.822,7.382 34.765,7.441 34.706,7.499 34.646,7.556 34.59,7.615 34.531,7.673 34.472,7.729 34.415,7.789 34.356,7.847 34.296,7.903 34.24,7.963 34.181,8.021 34.122,8.077 34.065,8.137 34.006,8.194 33.946,8.251 33.89,8.31 33.831,8.368 33.772,8.425 33.715,8.484 33.656,8.542 33.596,8.599 33.54,8.658 33.481,8.716 33.422,8.772 33.365,8.832 33.306,8.89 33.246,8.946 33.19,9.006 33.131,9.063 33.072,9.12 33.015,9.179 32.956,9.237 32.896,9.294 32.84,9.353 32.781,9.411 32.721,9.468 32.665,9.527 32.606,9.585 32.546,9.642 32.49,9.701 32.431,9.759 32.371,9.815 c -0.057,0.06 -0.115,0.117 -0.175,0.174 -0.92,0.962 -2.221,1.573 -3.816,1.612 -0.476,0.011 -0.926,-0.031 -1.352,-0.118 l -0.066,-0.005 c 0.001,0.116 -0.003,0.185 -0.003,0.185 l -0.172,-0.011 c 0.001,0.116 -0.003,0.185 -0.003,0.185 l -0.172,-0.011 c 0.001,0.116 -0.003,0.185 -0.003,0.185 L 26.437,12 c 10e-4,0.116 -0.003,0.185 -0.003,0.185 l -0.172,-0.011 c 0.001,0.115 -0.003,0.184 -0.003,0.184 l -0.172,-0.011 c 0.001,0.116 -0.004,0.185 -0.004,0.185 l -0.171,-0.011 c 0.001,0.116 -0.004,0.185 -0.004,0.185 l -0.171,-0.011 c 0,0.116 -0.004,0.185 -0.004,0.185 l -0.171,-0.011 c 0,0.116 -0.004,0.185 -0.004,0.185 l -0.171,-0.011 c 0,0.116 -0.004,0.184 -0.004,0.184 l -0.171,-0.011 c 0,0.116 -0.004,0.185 -0.004,0.185 L 25.037,13.39 c 0,0.116 -0.003,0.185 -0.003,0.185 l -0.172,-0.011 c 0,0.116 -0.003,0.185 -0.003,0.185 l -0.173,-0.011 c 0.001,0.116 -0.002,0.185 -0.002,0.185 l -0.173,-0.011 c 0.001,0.116 -0.002,0.184 -0.002,0.184 l -0.173,-0.011 c 0.002,0.116 -0.003,0.185 -0.003,0.185 l -0.172,-0.011 c 10e-4,0.116 -0.002,0.185 -0.002,0.185 l -0.173,-0.011 c 10e-4,0.116 -0.003,0.185 -0.003,0.185 l -0.172,-0.011 c 0.001,0.116 -0.003,0.185 -0.003,0.185 l -0.172,-0.011 c 0.001,0.115 -0.003,0.184 -0.003,0.184 l -0.172,-0.011 c 0.001,0.116 -0.003,0.185 -0.003,0.185 l -0.172,-0.011 c 10e-4,0.116 -0.003,0.185 -0.003,0.185 l -0.172,-0.011 c 10e-4,0.116 -0.003,0.185 -0.003,0.185 l -0.172,-0.011 c 0.001,0.116 -0.003,0.185 -0.003,0.185 L 22.761,15.65 c 0.001,0.116 -0.003,0.184 -0.003,0.184 l -4.643,-0.298 c -3.022,-0.203 -4.347,-2.391 -4.157,-5.19 L 14.634,0.67 C 14.589,0.716 14.543,0.762 14.496,0.806 14.44,0.865 14.381,0.923 14.321,0.979 14.265,1.039 14.206,1.097 14.146,1.153 14.09,1.213 14.031,1.271 13.971,1.327 13.915,1.387 13.856,1.445 13.796,1.501 13.74,1.561 13.681,1.618 13.621,1.675 13.565,1.734 13.506,1.792 13.446,1.848 13.39,1.908 13.331,1.966 13.271,2.022 13.215,2.082 13.156,2.14 13.096,2.196 13.04,2.256 12.981,2.314 12.921,2.37 12.865,2.43 12.806,2.487 12.746,2.544 12.69,2.603 12.631,2.661 12.571,2.717 12.515,2.777 12.456,2.835 12.396,2.891 12.34,2.951 12.281,3.009 12.221,3.065 12.164,3.125 12.106,3.183 12.046,3.239 11.99,3.299 11.931,3.357 11.871,3.413 11.814,3.472 11.756,3.53 11.696,3.587 11.639,3.646 11.581,3.704 11.521,3.76 11.465,3.82 11.406,3.878 11.346,3.934 11.29,3.994 11.231,4.052 11.171,4.108 11.114,4.168 11.056,4.225 10.996,4.282 10.939,4.341 10.881,4.399 10.821,4.456 10.765,4.515 10.706,4.573 10.646,4.629 10.59,4.689 10.531,4.747 10.471,4.803 10.414,4.863 10.356,4.921 10.296,4.977 10.239,5.037 10.181,5.094 10.121,5.151 10.064,5.21 10.006,5.268 9.946,5.325 9.889,5.384 9.831,5.442 9.771,5.498 9.714,5.558 9.656,5.616 9.596,5.672 9.539,5.732 9.481,5.79 9.421,5.846 9.364,5.906 9.306,5.964 9.246,6.02 9.189,6.079 9.131,6.137 9.071,6.194 9.014,6.253 8.956,6.311 8.896,6.367 8.839,6.427 8.781,6.485 8.721,6.541 8.664,6.601 8.606,6.659 8.546,6.715 8.489,6.775 8.431,6.833 8.371,6.889 8.314,6.949 8.256,7.006 8.196,7.063 7.04,8.279 5.225,8.787 3.121,8.268 0.28,7.566 -1.382,4.817 -0.565,1.509 -0.452,1.05 -0.289,0.612 -0.083,0.204 -0.1,0.199 -0.132,0.189 -0.175,0.174 l -0.067,0.209 c 0,0 -0.04,-0.012 -0.108,-0.035 l -0.067,0.209 c 0,0 -0.04,-0.012 -0.108,-0.036 l -0.067,0.21 c 0,0 -0.041,-0.012 -0.108,-0.036 l -0.067,0.209 c 0,0 -0.041,-0.011 -0.108,-0.035 l -0.067,0.209 c 0,0 -0.041,-0.012 -0.108,-0.035 l -0.067,0.209 c 0,0 -0.041,-0.012 -0.108,-0.035 l -0.067,0.209 c 0,0 -0.041,-0.012 -0.108,-0.036 L -1.467,1.6 c 0,0 -0.041,-0.012 -0.108,-0.036 l -0.067,0.209 c 0,0 -0.041,-0.012 -0.108,-0.035 l -0.067,0.209 c 0,0 -0.041,-0.012 -0.108,-0.035 l -0.067,0.209 c 0,0 -0.041,-0.012 -0.108,-0.035 l -0.067,0.209 c 0,0 -0.041,-0.012 -0.108,-0.035 l -0.067,0.209 c 0,0 -0.041,-0.012 -0.108,-0.036 l -0.067,0.209 c 0,0 -0.041,-0.011 -0.108,-0.035 l -0.067,0.209 c 0,0 -0.041,-0.012 -0.108,-0.035 L -2.867,2.99 c 0,0 -0.041,-0.012 -0.108,-0.035 l -0.067,0.209 c 0,0 -0.041,-0.012 -0.108,-0.035 l -0.067,0.209 c 0,0 -0.041,-0.012 -0.108,-0.036 l -0.067,0.209 c 0,0 -0.041,-0.011 -0.108,-0.035 l -0.067,0.209 c 0,0 -0.041,-0.012 -0.108,-0.035 l -0.067,0.209 c 0,0 -0.041,-0.012 -0.108,-0.035 l -0.067,0.209 c 0,0 -0.041,-0.012 -0.108,-0.035 l -0.067,0.209 c 0,0 -0.041,-0.012 -0.108,-0.035 L -4.267,4.38 c 0,0 -0.041,-0.011 -0.108,-0.035 l -0.068,0.209 c 0,0 -0.04,-0.012 -0.107,-0.035 l -0.068,0.209 c 0,0 -0.04,-0.012 -0.107,-0.035 l -0.068,0.209 c 0,0 -0.04,-0.012 -0.107,-0.035 l -0.068,0.209 c 0,0 -0.04,-0.012 -0.107,-0.036 l -0.068,0.209 c 0,0 -0.04,-0.011 -0.107,-0.035 l -0.068,0.209 c 0,0 -0.04,-0.011 -0.107,-0.035 l -0.068,0.209 c 0,0 -0.04,-0.012 -0.107,-0.035 l -0.068,0.209 c 0,0 -0.04,-0.012 -0.107,-0.035 l -0.068,0.209 c 0,0 -0.04,-0.012 -0.107,-0.035 l -0.068,0.209 c 0,0 -0.04,-0.012 -0.107,-0.036 l -0.068,0.209 c 0,0 -0.04,-0.011 -0.107,-0.035 l -0.068,0.209 c 0,0 -0.04,-0.012 -0.107,-0.035 L -6.543,6.64 c 0,0 -0.04,-0.012 -0.108,-0.035 l -0.067,0.209 c 0,0 -0.04,-0.012 -0.108,-0.036 l -0.067,0.21 c 0,0 -0.04,-0.012 -0.108,-0.036 l -0.067,0.209 c 0,0 -0.04,-0.011 -0.108,-0.035 l -0.067,0.209 c 0,0 -0.04,-0.012 -0.108,-0.035 l -0.067,0.209 c 0,0 -0.04,-0.012 -0.108,-0.035 l -0.067,0.209 c 0,0 -0.04,-0.012 -0.108,-0.035 l -0.067,0.209 c 0,0 -0.04,-0.012 -0.108,-0.036 L -7.943,8.03 c 0,0 -0.04,-0.011 -0.108,-0.035 l -0.067,0.209 c 0,0 -0.04,-0.011 -0.108,-0.035 l -0.067,0.209 c 0,0 -0.04,-0.012 -0.108,-0.035 l -0.067,0.209 c 0,0 -0.04,-0.012 -0.108,-0.035 l -0.067,0.209 c 0,0 -3.154,-0.902 -2.24,-3.735 0.914,-2.833 2.438,-7.508 2.438,-7.508 0.374,-1.165 0.87,-1.993 1.462,-2.542 0.057,-0.061 0.115,-0.119 0.174,-0.174 0.058,-0.061 0.116,-0.119 0.175,-0.174 0.058,-0.061 0.116,-0.119 0.175,-0.174 0.058,-0.06 0.116,-0.118 0.176,-0.174 0.057,-0.06 0.115,-0.118 0.174,-0.173 0.058,-0.061 0.116,-0.119 0.175,-0.174 0.058,-0.061 0.116,-0.119 0.175,-0.174 0.058,-0.061 0.116,-0.119 0.176,-0.174 0.057,-0.061 0.115,-0.118 0.175,-0.174 0.057,-0.06 0.115,-0.118 0.175,-0.173 0.057,-0.061 0.115,-0.119 0.175,-0.174 0.057,-0.061 0.115,-0.119 0.175,-0.174 0.057,-0.061 0.115,-0.119 0.175,-0.174 0.057,-0.061 0.115,-0.118 0.175,-0.174 0.057,-0.06 0.115,-0.118 0.175,-0.173 0.057,-0.061 0.115,-0.119 0.175,-0.174 0.057,-0.061 0.115,-0.119 0.175,-0.174 0.057,-0.061 0.115,-0.119 0.175,-0.174 0.057,-0.061 0.115,-0.119 0.175,-0.174 0.057,-0.06 0.115,-0.118 0.175,-0.173 0.057,-0.061 0.115,-0.119 0.175,-0.174 0.057,-0.061 0.115,-0.119 0.175,-0.174 0.057,-0.061 0.115,-0.119 0.175,-0.174 0.057,-0.061 0.115,-0.119 0.175,-0.174 0.057,-0.061 0.115,-0.118 0.175,-0.173 0.057,-0.061 0.115,-0.119 0.175,-0.174 0.057,-0.061 0.115,-0.119 0.175,-0.174 0.057,-0.061 0.115,-0.119 0.175,-0.174 0.057,-0.061 0.115,-0.119 0.175,-0.174 0.057,-0.061 0.115,-0.118 0.175,-0.174 0.057,-0.06 0.116,-0.118 0.175,-0.173 0.057,-0.061 0.116,-0.119 0.175,-0.174 0.057,-0.061 0.116,-0.119 0.175,-0.174 0.057,-0.061 0.116,-0.119 0.175,-0.174 0.057,-0.061 0.116,-0.119 0.175,-0.174 0.057,-0.06 0.116,-0.118 0.175,-0.173 0.001,-10e-4 0.002,-0.002 0.003,-0.003 7.554,3.19 15.528,4.758 24.756,4.759 6.73,0 14.129,-0.838 22.509,-2.49 -0.095,-0.676 -0.157,-1.095 -0.176,-1.171 -0.157,-0.651 0.281,-1.301 0.893,-1.377 9.203,-2.187 17.651,-4.187 25.849,-5.257 -0.027,0.022 -0.061,0.041 -0.109,0.056 -0.008,0.083 -0.057,0.139 -0.175,0.175" style="fill:#ca8e17;fill-opacity:1;fill-rule:nonzero;stroke:none" id="path2550" inkscape:connector-curvature="0" />
    </g>
    <g id="g2552" transform="matrix(2.0419982,0,0,-2.0419982,141.78068,119.27709)">
      <path d="m 0,0 -0.728,10.422 c -0.19,2.799 1.135,4.987 4.156,5.191 l 4.644,0.298 c 0,0 0.184,-3.045 -2.189,-3.254 -1.101,-0.096 -1.466,-0.102 -1.466,-0.102 -1.356,-0.091 -1.94,-0.711 -1.852,-2 L 2.719,8.774 7.461,9.005 c 0,0 0.264,-2.671 -2.156,-2.842 -2.038,-0.144 -2.373,-0.17 -2.373,-0.17 0,0 0.014,-1.157 0.185,-3.574 C 3.292,-0.049 0,0 0,0" style="fill:#ffffff;fill-opacity:1;fill-rule:nonzero;stroke:none" id="path2554" inkscape:connector-curvature="0" />
    </g>
    <g id="g2556" transform="matrix(2.0419982,0,0,-2.0419982,164.08523,106.93062)">
      <path d="M 0,0 V 0 C -0.043,-1.809 0.982,-2.861 2.567,-2.898 4.153,-2.936 5.226,-1.935 5.269,-0.126 5.313,1.683 4.288,2.735 2.702,2.773 1.117,2.81 0.043,1.808 0,0 M 8.127,-0.194 C 8.053,-3.298 5.87,-5.837 2.499,-5.756 -0.873,-5.676 -2.932,-3.035 -2.858,0.068 -2.784,3.172 -0.6,5.711 2.771,5.631 6.142,5.55 8.202,2.909 8.127,-0.194" style="fill:#ffffff;fill-opacity:1;fill-rule:nonzero;stroke:none" id="path2558" inkscape:connector-curvature="0" />
    </g>
    <g id="g2560" transform="matrix(2.0419982,0,0,-2.0419982,191.73717,91.748144)">
      <path d="m 0,0 v 0 c -0.146,-1.161 -0.963,-1.715 -1.922,-1.595 -0.96,0.12 -1.615,0.86 -1.469,2.02 0.145,1.16 0.962,1.715 1.922,1.594 C -0.51,1.899 0.145,1.16 0,0 m -4.835,-13.431 c 0,0 0.649,5.714 1.029,8.37 0.38,2.656 3.185,2.115 3.185,2.115 0,0 -0.691,-6.125 -1.037,-8.394 -0.346,-2.269 -3.177,-2.091 -3.177,-2.091" style="fill:#ffffff;fill-opacity:1;fill-rule:nonzero;stroke:none" id="path2562" inkscape:connector-curvature="0" />
    </g>
    <g id="g2564" transform="matrix(2.0419982,0,0,-2.0419982,191.03227,119.40698)">
      <path d="m 0,0 c 0,0 1.002,6.844 1.299,8.801 0.298,1.957 2.975,1.584 2.975,1.584 L 3.97,8.355 4.014,8.349 C 4.707,9.665 5.735,10.168 7.051,10.103 7.551,10.079 7.667,10 7.631,9.785 7.596,9.571 7.373,8.115 7.281,7.735 7.189,7.355 6.996,7.043 6.513,7.117 5.211,7.315 4.029,6.497 3.785,4.865 L 3.02,-0.363 Z" style="fill:#ffffff;fill-opacity:1;fill-rule:nonzero;stroke:none" id="path2566" inkscape:connector-curvature="0" />
    </g>
    <g id="g2568" transform="matrix(2.0419982,0,0,-2.0419982,126.87287,116.67708)">
      <path d="m 0,0 v 0 c -0.417,-0.351 -1.114,-0.781 -2.215,-1.053 -1.673,-0.413 -2.707,0.762 -3.048,2.14 -0.371,1.506 0.333,2.939 1.626,3.259 1.484,0.366 2.616,-0.21 2.92,-1.44 z M 4.173,0.212 C 3.322,0.002 2.91,-0.123 2.711,0.687 L 1.966,3.704 C 1.307,6.375 -1.168,7.835 -4.264,7.07 -7.106,6.369 -8.767,3.619 -7.951,0.311 c 0.665,-2.693 3.005,-4.702 6.187,-3.918 1.433,0.354 2.229,1.007 2.632,1.374 0.28,-0.229 0.719,-0.456 1.335,-0.305 l 0.617,0.153 c 1.995,0.483 1.51,1.957 1.353,2.597" style="fill:#ffffff;fill-opacity:1;fill-rule:nonzero;stroke:none" id="path2570" inkscape:connector-curvature="0" />
    </g>
    <g id="g2572" transform="matrix(2.0419982,0,0,-2.0419982,94.142493,101.30389)">
      <path d="m 0,0 3.223,-10.034 c 0.43,-1.339 1.095,-1.541 2.141,-1.204 l 3.097,1.042 c 0,0 0.999,-2.879 -1.076,-3.571 -1.624,-0.541 -1.844,-0.605 -1.844,-0.605 -2.343,-0.752 -4.309,-0.091 -5.344,3.129 0,0 -1.523,4.675 -2.437,7.509 C -3.155,-0.901 0,0 0,0" style="fill:#ffffff;fill-opacity:1;fill-rule:nonzero;stroke:none" id="path2574" inkscape:connector-curvature="0" />
    </g>
    <g id="g2576" transform="matrix(2.0419982,0,0,-2.0419982,208.67676,142.67797)">
      <path d="m 0,0 c 24.495,-5.822 43.646,-10.319 66.977,0.536 0.617,0.286 1.037,1.151 1.037,1.735 -0.002,10.854 -0.006,20.039 -0.006,30.894 0,1.199 -0.888,1.505 -1.755,0.918 -20.936,-14.161 -41.6,-11.966 -62.891,-5.694 -0.372,0.1 -0.644,0.027 -0.711,-0.472 0,0 -3.387,-25.888 -3.544,-26.539 C -1.05,0.726 -0.612,0.077 0,0" style="fill:#eb2629;fill-opacity:1;fill-rule:nonzero;stroke:none" id="path2578" inkscape:connector-curvature="0" />
    </g>
    <g id="g2580" transform="matrix(2.0419982,0,0,-2.0419982,347.56182,138.04104)">
      <path d="m 0,0 c -0.001,2.841 -0.001,5.566 -0.002,8.238 -0.039,0.04 -0.078,0.079 -0.118,0.118 -0.056,0.06 -0.115,0.117 -0.175,0.175 -0.056,0.06 -0.116,0.117 -0.175,0.175 -0.056,0.06 -0.116,0.117 -0.175,0.175 -0.056,0.06 -0.115,0.117 -0.175,0.175 -0.056,0.06 -0.116,0.117 -0.175,0.175 -0.056,0.06 -0.116,0.117 -0.175,0.175 -0.056,0.06 -0.116,0.117 -0.175,0.175 -0.056,0.06 -0.116,0.117 -0.175,0.175 -0.056,0.06 -0.116,0.117 -0.175,0.175 -0.056,0.06 -0.116,0.117 -0.175,0.175 -0.056,0.06 -0.116,0.117 -0.175,0.175 -0.056,0.06 -0.116,0.117 -0.175,0.175 -0.056,0.06 -0.116,0.117 -0.175,0.175 -0.056,0.06 -0.116,0.117 -0.175,0.175 -0.056,0.06 -0.116,0.117 -0.175,0.175 -0.056,0.06 -0.116,0.117 -0.175,0.175 -0.056,0.06 -0.116,0.117 -0.175,0.175 -0.056,0.06 -0.116,0.117 -0.175,0.175 -0.056,0.06 -0.116,0.117 -0.175,0.175 -0.056,0.06 -0.116,0.117 -0.175,0.175 -0.056,0.06 -0.116,0.117 -0.175,0.175 -0.056,0.06 -0.116,0.117 -0.175,0.175 -0.056,0.06 -0.116,0.117 -0.175,0.175 -0.056,0.06 -0.116,0.117 -0.175,0.175 -0.027,0.029 -0.056,0.057 -0.084,0.086 -0.036,0.044 -0.075,0.085 -0.113,0.128 -0.057,0.07 -0.115,0.139 -0.175,0.206 -0.057,0.07 -0.115,0.139 -0.175,0.207 -0.057,0.07 -0.115,0.138 -0.175,0.206 -0.988,1.217 -2.446,2.138 -4.219,2.256 -1.826,0.122 -3.33,-0.546 -4.369,-1.668 -0.003,0.024 -0.004,0.036 -0.004,0.036 0,0 -0.058,-10e-4 -0.156,-0.009 -0.012,0.119 -0.019,0.184 -0.019,0.184 0,0 -0.058,-0.001 -0.156,-0.009 -0.012,0.119 -0.019,0.184 -0.019,0.184 0,0 -0.058,-10e-4 -0.156,-0.009 -0.012,0.119 -0.019,0.184 -0.019,0.184 0,0 -0.058,-10e-4 -0.156,-0.009 -0.012,0.119 -0.019,0.184 -0.019,0.184 0,0 -0.058,-10e-4 -0.156,-0.009 -0.012,0.119 -0.019,0.184 -0.019,0.184 0,0 -0.058,-10e-4 -0.156,-0.009 -0.012,0.119 -0.019,0.184 -0.019,0.184 0,0 -0.058,-0.001 -0.156,-0.009 -0.012,0.119 -0.019,0.184 -0.019,0.184 0,0 -0.058,-10e-4 -0.156,-0.009 -0.013,0.119 -0.019,0.184 -0.019,0.184 0,0 -0.058,-10e-4 -0.156,-0.009 -0.013,0.119 -0.019,0.184 -0.019,0.184 0,0 -0.058,-10e-4 -0.156,-0.009 -0.013,0.119 -0.019,0.184 -0.019,0.184 0,0 -0.058,-10e-4 -0.156,-0.009 -0.013,0.119 -0.019,0.184 -0.019,0.184 0,0 -0.058,-0.001 -0.156,-0.009 -0.012,0.119 -0.019,0.184 -0.019,0.184 0,0 -0.058,-0.001 -0.156,-0.009 -0.012,0.119 -0.019,0.184 -0.019,0.184 0,0 -0.058,-0.001 -0.156,-0.009 -0.012,0.119 -0.019,0.184 -0.019,0.184 0,0 -0.058,-0.001 -0.156,-0.009 -0.012,0.119 -0.019,0.184 -0.019,0.184 0,0 -0.058,-0.001 -0.156,-0.009 -0.012,0.119 -0.019,0.184 -0.019,0.184 0,0 -0.058,-10e-4 -0.156,-0.009 -0.012,0.119 -0.019,0.184 -0.019,0.184 0,0 -0.058,-0.001 -0.156,-0.009 -0.012,0.121 -0.019,0.187 -0.019,0.187 0,0 -0.057,-0.001 -0.153,-0.009 -0.014,0.14 -0.022,0.216 -0.022,0.216 0,0 -0.057,-0.002 -0.153,-0.01 -0.014,0.14 -0.023,0.216 -0.023,0.216 0,0 -0.056,-0.002 -0.152,-0.009 -0.015,0.14 -0.023,0.215 -0.023,0.215 0,0 -0.056,-0.001 -0.152,-0.009 -0.015,0.14 -0.023,0.215 -0.023,0.215 0,0 -0.056,-0.001 -0.152,-0.009 -0.015,0.14 -0.023,0.216 -0.023,0.216 0,0 -3.416,-0.069 -3.154,-2.924 0.015,-0.165 0.038,-0.401 0.067,-0.696 -0.021,0 -0.046,-10e-4 -0.073,-0.003 -0.007,0.116 -0.011,0.179 -0.011,0.179 0,0 -0.061,0.001 -0.164,-0.004 -0.007,0.116 -0.011,0.179 -0.011,0.179 0,0 -0.061,10e-4 -0.164,-0.004 -0.007,0.116 -0.011,0.179 -0.011,0.179 0,0 -0.061,0.001 -0.164,-0.004 -0.007,0.116 -0.011,0.179 -0.011,0.179 0,0 -0.061,10e-4 -0.164,-0.004 -0.007,0.116 -0.011,0.179 -0.011,0.179 0,0 -0.061,10e-4 -0.164,-0.004 -0.007,0.118 -0.011,0.182 -0.011,0.182 0,0 -0.061,10e-4 -0.163,-0.004 -0.008,0.137 -0.012,0.21 -0.012,0.21 0,0 -0.061,0.002 -0.163,-0.003 -0.008,0.136 -0.012,0.21 -0.012,0.21 0,0 -0.061,10e-4 -0.163,-0.004 -0.008,0.137 -0.012,0.21 -0.012,0.21 0,0 -0.061,10e-4 -0.163,-0.004 -0.008,0.137 -0.012,0.21 -0.012,0.21 0,0 -0.061,10e-4 -0.163,-0.003 -0.008,0.136 -0.012,0.21 -0.012,0.21 0,0 -3.166,0.07 -3.039,-2.717 0.017,-0.363 0.055,-1.083 0.107,-2.017 -0.015,0.018 -0.031,0.035 -0.047,0.052 -0.046,0.064 -0.096,0.124 -0.147,0.18 -0.051,0.072 -0.107,0.137 -0.164,0.199 -0.051,0.072 -0.106,0.138 -0.164,0.2 -0.051,0.071 -0.105,0.138 -0.163,0.199 -0.051,0.071 -0.104,0.139 -0.163,0.201 -0.047,0.066 -0.098,0.129 -0.152,0.187 -0.043,0.061 -0.09,0.118 -0.138,0.172 -0.033,0.049 -0.068,0.094 -0.104,0.138 -0.046,0.077 -0.096,0.149 -0.151,0.217 -0.049,0.085 -0.105,0.162 -0.164,0.236 -0.05,0.085 -0.105,0.163 -0.165,0.236 -0.049,0.086 -0.104,0.165 -0.165,0.238 -0.307,0.537 -0.861,0.831 -1.517,0.836 -1.015,0.008 -1.799,-0.67 -1.808,-1.896 -0.005,-0.569 0.16,-1.02 0.438,-1.344 0.054,-0.095 0.116,-0.183 0.184,-0.263 0.054,-0.096 0.115,-0.183 0.183,-0.264 0.054,-0.095 0.116,-0.183 0.184,-0.264 0.056,-0.1 0.12,-0.191 0.191,-0.275 0.069,-0.122 0.151,-0.231 0.241,-0.329 0.056,-0.088 0.12,-0.169 0.188,-0.243 0.058,-0.089 0.122,-0.169 0.191,-0.244 0.039,-0.06 0.082,-0.116 0.126,-0.17 -0.595,-0.194 -1.215,-0.576 -1.492,-1.325 -0.003,0.001 -0.007,0.001 -0.011,0.001 l 0.012,0.148 c 0,0 -0.07,0.014 -0.187,0.027 l 0.012,0.148 c 0,0 -0.07,0.014 -0.187,0.027 l 0.012,0.148 c 0,0 -0.07,0.014 -0.187,0.028 l 0.012,0.15 c 0,0 -0.07,0.014 -0.189,0.028 l 0.014,0.178 c 0,0 -0.07,0.014 -0.189,0.028 l 0.014,0.178 c 0,0 -0.071,0.014 -0.189,0.028 L -31.34,9.9 c 0,0 -0.071,0.014 -0.189,0.028 l 0.014,0.178 c 0,0 -0.071,0.014 -0.189,0.028 l 0.014,0.178 c 0,0 -2.995,0.599 -3.16,-2.127 -0.013,-0.217 -0.026,-0.428 -0.039,-0.635 -0.03,0.005 -0.07,0.01 -0.117,0.015 l 0.011,0.15 c 0,0 -0.07,0.013 -0.186,0.025 l 0.01,0.15 c 0,0 -0.069,0.013 -0.185,0.025 l 0.01,0.149 c 0,0 -0.069,0.014 -0.185,0.026 l 0.01,0.149 c 0,0 -0.069,0.014 -0.185,0.027 l 0.01,0.148 c 0,0 -0.069,0.014 -0.185,0.026 l 0.01,0.149 c 0,0 -0.069,0.014 -0.185,0.026 l 0.01,0.149 c 0,0 -0.069,0.014 -0.185,0.026 l 0.01,0.149 c 0,0 -0.069,0.014 -0.185,0.026 l 0.01,0.149 c 0,0 -0.069,0.014 -0.185,0.026 l 0.01,0.15 c 0,0 -0.069,0.013 -0.185,0.025 l 0.01,0.15 c 0,0 -0.069,0.013 -0.186,0.025 l 0.011,0.15 c 0,0 -0.069,0.013 -0.186,0.025 l 0.011,0.152 c 0,0 -0.07,0.014 -0.188,0.027 l 0.013,0.18 c 0,0 -0.07,0.013 -0.188,0.026 l 0.013,0.18 c 0,0 -0.07,0.013 -0.188,0.026 l 0.013,0.18 c 0,0 -0.07,0.014 -0.188,0.027 l 0.013,0.18 c 0,0 -0.07,0.013 -0.188,0.026 l 0.013,0.18 c 0,0 -2.92,0.56 -3.089,-2.07 -0.037,-0.585 -0.074,-1.135 -0.109,-1.645 -0.048,0.05 -0.098,0.098 -0.148,0.146 -0.056,0.059 -0.115,0.118 -0.175,0.175 -0.056,0.059 -0.115,0.118 -0.175,0.175 -0.056,0.059 -0.115,0.118 -0.175,0.175 -0.056,0.059 -0.115,0.118 -0.175,0.175 -0.056,0.059 -0.115,0.118 -0.175,0.175 -0.056,0.059 -0.115,0.118 -0.175,0.175 -0.056,0.06 -0.115,0.118 -0.175,0.175 -0.056,0.06 -0.115,0.118 -0.175,0.175 -0.056,0.06 -0.115,0.118 -0.175,0.175 -0.056,0.06 -0.115,0.118 -0.175,0.175 -0.036,0.038 -0.074,0.076 -0.112,0.113 -0.046,0.056 -0.093,0.111 -0.141,0.165 -0.056,0.071 -0.115,0.14 -0.175,0.207 -0.057,0.07 -0.115,0.139 -0.175,0.206 -0.057,0.07 -0.115,0.139 -0.175,0.207 -0.736,0.919 -1.814,1.592 -3.198,1.848 -0.295,0.055 -0.584,0.086 -0.866,0.097 0.008,0.048 0.011,0.075 0.011,0.075 l -0.199,0.022 c 0.017,0.096 0.024,0.153 0.024,0.153 l -0.199,0.022 c 0.017,0.096 0.024,0.153 0.024,0.153 l -0.199,0.022 c 0.017,0.096 0.024,0.153 0.024,0.153 l -0.199,0.022 c 0.017,0.096 0.024,0.153 0.024,0.153 l -0.199,0.022 c 0.017,0.096 0.024,0.153 0.024,0.153 l -0.199,0.022 c 0.017,0.096 0.024,0.153 0.024,0.153 l -0.199,0.022 c 0.017,0.096 0.023,0.154 0.023,0.154 l -0.198,0.021 c 0.017,0.096 0.023,0.154 0.023,0.154 l -0.198,0.021 c 0.017,0.096 0.023,0.154 0.023,0.154 l -0.198,0.021 c 0.017,0.096 0.023,0.154 0.023,0.154 l -0.198,0.021 c 0.017,0.096 0.023,0.154 0.023,0.154 l -0.198,0.021 c 0.017,0.096 0.023,0.154 0.023,0.154 l -0.198,0.021 c 0.017,0.096 0.023,0.154 0.023,0.154 l -0.198,0.021 c 0.017,0.096 0.023,0.154 0.023,0.154 l -0.198,0.021 c 0.017,0.096 0.023,0.154 0.023,0.154 l -0.198,0.021 c 0.017,0.096 0.023,0.154 0.023,0.154 l -0.198,0.021 c 0.017,0.096 0.023,0.154 0.023,0.154 l -0.198,0.021 c 0.017,0.096 0.023,0.154 0.023,0.154 l -0.199,0.021 c 0.017,0.098 0.024,0.157 0.024,0.157 l -0.204,0.021 c 0.021,0.116 0.029,0.185 0.029,0.185 l -0.204,0.022 c 0.021,0.115 0.029,0.184 0.029,0.184 l -0.204,0.022 c 0.021,0.115 0.029,0.184 0.029,0.184 l -0.204,0.023 c 0.021,0.115 0.029,0.184 0.029,0.184 l -0.204,0.022 c 0.021,0.115 0.029,0.184 0.029,0.184 l -4.426,0.479 c -2.881,0.301 -4.488,-1.544 -4.767,-4.214 l -1.017,-9.942 c 0,0 0.072,-0.014 0.193,-0.028 l -0.018,-0.178 c 0,0 0.072,-0.014 0.193,-0.028 l -0.018,-0.179 c 0,0 0.072,-0.013 0.193,-0.028 l -0.018,-0.178 c 0,0 0.072,-0.013 0.193,-0.028 l -0.018,-0.178 c 0,0 0.072,-0.014 0.193,-0.028 l -0.018,-0.179 c 0,0 0.071,-0.013 0.19,-0.027 l -0.015,-0.151 c 0,0 0.071,-0.013 0.19,-0.027 l -0.015,-0.148 c 0,0 0.071,-0.013 0.19,-0.027 l -0.015,-0.147 c 0,0 0.071,-0.014 0.19,-0.028 l -0.015,-0.148 c 0,0 0.071,-0.013 0.19,-0.027 l -0.015,-0.148 c 0,0 0.071,-0.013 0.19,-0.027 l -0.015,-0.148 c 0,0 0.071,-0.013 0.19,-0.027 l -0.015,-0.148 c 0,0 0.071,-0.013 0.19,-0.027 l -0.015,-0.148 c 0,0 0.071,-0.013 0.19,-0.027 l -0.015,-0.148 c 0,0 0.071,-0.013 0.19,-0.027 l -0.015,-0.148 c 0,0 0.071,-0.013 0.19,-0.027 l -0.015,-0.148 c 0,0 0.071,-0.013 0.19,-0.027 l -0.015,-0.148 c 0,0 0.071,-0.013 0.19,-0.027 l -0.015,-0.148 c 0,0 0.071,-0.013 0.19,-0.027 l -0.015,-0.148 c 0,0 0.071,-0.013 0.19,-0.027 l -0.015,-0.148 c 0,0 0.071,-0.013 0.19,-0.027 l -0.015,-0.148 c 0,0 0.071,-0.013 0.19,-0.027 l -0.015,-0.148 c 0,0 0.071,-0.013 0.19,-0.027 l -0.015,-0.148 c 0,0 0.071,-0.013 0.19,-0.027 l -0.015,-0.148 c 0,0 0.071,-0.013 0.19,-0.027 l -0.015,-0.148 c 0,0 0.071,-0.013 0.19,-0.027 l -0.015,-0.148 c 0,0 0.071,-0.013 0.19,-0.027 l -0.015,-0.148 c 0,0 0.071,-0.013 0.19,-0.027 l -0.015,-0.148 c 0,0 0.071,-0.013 0.19,-0.028 l -0.015,-0.147 c 0,0 0.071,-0.013 0.19,-0.028 l -0.015,-0.147 c 0,0 0.071,-0.013 0.19,-0.028 l -0.015,-0.147 c 0,0 0.071,-0.013 0.19,-0.028 l -0.015,-0.147 c 0,0 0.071,-0.013 0.19,-0.028 l -0.015,-0.147 c 0,0 0.071,-0.013 0.19,-0.028 l -0.015,-0.147 c 0,0 0.071,-0.013 0.19,-0.027 l -0.015,-0.148 c 0,0 0.071,-0.013 0.19,-0.028 l -0.015,-0.147 c 0,0 0.071,-0.013 0.19,-0.027 l -0.015,-0.148 c 0,0 0.071,-0.013 0.19,-0.027 l -0.015,-0.148 c 0,0 0.071,-0.013 0.19,-0.028 l -0.015,-0.147 c 0,0 0.071,-0.013 0.19,-0.028 l -0.015,-0.147 c 0,0 0.071,-0.013 0.19,-0.028 l -0.015,-0.147 c 0,0 0.071,-0.013 0.19,-0.028 l -0.015,-0.147 c 0,0 0.071,-0.013 0.19,-0.028 l -0.015,-0.147 c 0,0 0.071,-0.013 0.19,-0.028 l -0.015,-0.147 c 0,0 0.071,-0.013 0.19,-0.028 l -0.012,-0.12 c 18.418,-3.876 34.541,-5.129 53.394,3.642 C -0.421,-1.448 0,-0.584 0,0" style="fill:#c02629;fill-opacity:1;fill-rule:nonzero;stroke:none" id="path2582" inkscape:connector-curvature="0" />
    </g>
    <g id="g2584" transform="matrix(2.0419982,0,0,-2.0419982,220.03169,132.93457)">
      <path d="m 0,0 1.018,9.942 c 0.279,2.67 1.885,4.515 4.767,4.214 l 4.426,-0.479 c 0,0 -0.325,-2.9 -2.596,-2.708 C 6.561,11.057 6.216,11.112 6.216,11.112 4.923,11.247 4.273,10.758 4.144,9.53 L 3.999,7.825 8.505,7.268 c 0,0 -0.188,-2.561 -2.497,-2.326 C 4.064,5.14 3.743,5.17 3.743,5.17 3.743,5.17 3.567,4.077 3.334,1.771 3.096,-0.585 0,0 0,0" style="fill:#ffffff;fill-opacity:1;fill-rule:nonzero;stroke:none" id="path2586" inkscape:connector-curvature="0" />
    </g>
    <g id="g2588" transform="matrix(2.0419982,0,0,-2.0419982,244.01782,124.40412)">
      <path d="m 0,0 v 0 c -0.32,-1.726 0.5,-2.891 2.013,-3.172 1.513,-0.28 2.696,0.515 3.016,2.241 C 5.348,0.795 4.528,1.96 3.015,2.24 1.503,2.521 0.319,1.726 0,0 M 7.756,-1.436 C 7.208,-4.398 4.726,-6.495 1.508,-5.899 -1.709,-5.303 -3.276,-2.457 -2.728,0.505 -2.179,3.466 0.302,5.563 3.52,4.968 6.738,4.372 8.304,1.526 7.756,-1.436" style="fill:#ffffff;fill-opacity:1;fill-rule:nonzero;stroke:none" id="path2590" inkscape:connector-curvature="0" />
    </g>
    <g id="g2592" transform="matrix(2.0419982,0,0,-2.0419982,269.73126,116.15301)">
      <path d="m 0,0 -0.485,-6.675 c -0.093,-1.181 0.446,-1.892 1.515,-1.983 1.07,-0.09 1.713,0.521 1.807,1.702 0,0 0.138,1.871 0.284,4.291 0.165,2.727 3.16,2.128 3.16,2.128 L 5.667,-8.242 c -0.198,-2.504 -2.169,-3.669 -4.876,-3.44 -2.708,0.23 -4.469,1.71 -4.27,4.214 0,0 0.184,2.173 0.39,5.398 C -2.921,0.56 0,0 0,0" style="fill:#ffffff;fill-opacity:1;fill-rule:nonzero;stroke:none" id="path2594" inkscape:connector-curvature="0" />
    </g>
    <g id="g2596" transform="matrix(2.0419982,0,0,-2.0419982,285.26375,140.77627)">
      <path d="m 0,0 v 0 c 0,0 0.039,6.456 0.069,8.927 0.032,2.548 3.034,2.376 3.034,2.376 0,0 0.006,-7.53 -0.075,-9.155 C 2.916,-0.089 0,0 0,0 M 3.368,14.475 C 3.358,13.249 2.575,12.572 1.56,12.58 c -1.013,0.007 -1.787,0.697 -1.776,1.924 0.009,1.226 0.793,1.904 1.807,1.896 1.014,-0.008 1.786,-0.698 1.777,-1.925" style="fill:#ffffff;fill-opacity:1;fill-rule:nonzero;stroke:none" id="path2598" inkscape:connector-curvature="0" />
    </g>
    <g id="g2600" transform="matrix(2.0419982,0,0,-2.0419982,296.95296,139.85175)">
      <path d="m 0,0 c 0,0 -0.745,12.688 -0.836,14.674 -0.127,2.787 3.039,2.716 3.039,2.716 0,0 0.695,-12.065 0.834,-14.693 C 3.177,0.07 0,0 0,0" style="fill:#ffffff;fill-opacity:1;fill-rule:nonzero;stroke:none" id="path2602" inkscape:connector-curvature="0" />
    </g>
    <g id="g2604" transform="matrix(2.0419982,0,0,-2.0419982,308.25192,137.85802)">
      <path d="m 0,0 c 0,0 -1.376,12.99 -1.564,15.024 -0.262,2.855 3.155,2.924 3.155,2.924 0,0 1.294,-12.353 1.563,-15.044 C 3.422,0.213 0,0 0,0" style="fill:#ffffff;fill-opacity:1;fill-rule:nonzero;stroke:none" id="path2606" inkscape:connector-curvature="0" />
    </g>
    <g id="g2608" transform="matrix(2.0419982,0,0,-2.0419982,322.19412,118.07092)">
      <path d="M 0,0 V 0 C 0.058,1.628 1.084,2.828 2.682,3.022 3.559,3.128 4.648,2.79 5.04,2.3 1.059,-0.47 1.151,-0.408 0.583,-0.825 0.433,-0.935 0.307,-1.051 0.2,-1.171 0.056,-0.772 -0.013,-0.366 0,0 M 5.791,-1.874 C 4.936,-2.985 4.344,-3.257 3.073,-3.303 2.517,-3.324 2.028,-3.183 1.613,-2.94 L 8.361,1.809 C 7.558,3.762 5.674,5.539 3.162,5.705 -0.343,5.938 -2.667,3.269 -2.783,0.037 -2.899,-3.233 -0.787,-6.01 2.724,-6.135 5.91,-6.249 7.992,-4.293 8.659,-1.266 8.659,-1.266 6.861,-0.517 5.791,-1.874" style="fill:#ffffff;fill-opacity:1;fill-rule:nonzero;stroke:none" id="path2610" inkscape:connector-curvature="0" />
    </g>
    <g id="g2612" transform="matrix(2.0419982,0,0,-2.0419982,212.54285,98.049159)">
      <path d="m 0,0 c -0.363,0.132 -0.723,0.234 -1.059,0.39 -2.157,1.002 -3.469,2.677 -3.896,5.016 -0.222,1.219 -0.099,2.425 0.375,3.575 0.903,2.192 2.52,3.58 4.834,4.071 2.081,0.442 3.961,-0.07 5.606,-1.429 C 6.348,11.22 6.746,10.745 7.095,10.219 7.962,8.909 8.322,7.466 8.214,5.909 8.14,4.845 7.774,3.868 7.245,2.949 6.572,1.777 5.675,0.799 4.627,-0.046 3.424,-1.015 2.108,-1.777 0.63,-2.244 c -0.688,-0.217 -1.389,-0.383 -2.113,-0.412 -0.254,-0.01 -0.518,0.009 -0.765,0.068 -0.397,0.094 -0.49,0.467 -0.202,0.756 0.095,0.095 0.218,0.174 0.343,0.224 0.459,0.186 0.911,0.384 1.319,0.671 C -0.441,-0.693 -0.205,-0.359 0,0" style="fill:#2c71c1;fill-opacity:1;fill-rule:nonzero;stroke:none" id="path2614" inkscape:connector-curvature="0" />
    </g>
  </g>
</svg>
