<svg xmlns="http://www.w3.org/2000/svg" viewBox="0 0 60 60">
  <path fill="#0050aa" d="M0.5 0.5h59v59H0.5z"/>
  <path fill="#fff" d="M59.5 0.5v59H0.5V0.5h59zM60 0H0v60h60V0z"/>
  <circle cx="30" cy="30" r="26.15" fill="#fff000"/>
  <path fill="#e60a14" d="M28.38 30.74l-4.62-4.62-5.32 5.33v1.79l1.34-1.35 3.72 3.73-1.37 1.36.89.9 7.43-7.44v-1.78l-2.07 2.08z"/>
  <path fill="#0050aa" d="M6.82 25.15h8.22v1.77H13.7v5.74l4.76-2.65v4.86H6.85v-1.78h1.38V26.9H6.82v-1.77zM41.5 25.15v1.77h1.37v6.16H41.5v1.78h11.62V30l-4.77 2.65V27h1.38v-1.77H41.5z"/>
  <path fill="#e60a14" d="M23.08 19.62a2.93 2.93 0 1 1 0 5.86 2.93 2.93 0 0 1 0-5.86z"/>
  <circle cx="30" cy="30" r="26.15" fill="none" stroke="#e60a14" stroke-width="0.5"/>
  <path fill="#0050aa" d="M36.91 25.15h-7.83v1.77h1.37v6.16h-1.39v1.78h7.83c5.81 0 5.88-9.72.02-9.72z"/>
  <path fill="#fff000" d="M35.81 31.83h-.39v-3.65h.33c1.72 0 1.72 3.65.06 3.65z"/>
</svg>