<svg xmlns="http://www.w3.org/2000/svg" width="666" height="666" viewBox="0 0 666 666">
<g transform="translate(0,666) scale(0.1,-0.1)" fill="#000000" stroke="none">
<path d="M3070 6650 c-793 -69 -1492 -385 -2053 -927 -553 -535 -890 -1206 -994 -1981 -21 -159 -24 -637 -5 -782 20 -150 42 -277 67 -385 267 -1139 1109 -2051 2226 -2413 333 -108 646 -156 1019 -156 245 1 427 17 640 60 1126 224 2054 1006 2463 2074 94 246 155 484 192 750 22 155 31 561 16 728 -69 782 -404 1503 -956 2057 -537 539 -1205 865 -1965 960 -152 19 -506 27 -650 15z m2422 -2017 c33 -31 35 -57 9 -97 l-20 -30 25 -29 c29 -35 30 -65 4 -116 -21 -42 -82 -98 -116 -107 -12 -3 -40 4 -63 15 l-41 21 0 170 c0 160 1 170 19 170 10 0 34 7 52 15 54 23 99 19 131 -12z m-544 4 c30 -11 36 -20 64 -102 17 -49 34 -93 38 -98 3 -4 19 37 34 91 15 54 31 104 36 111 6 10 24 12 74 6 l66 -7 0 -163 c0 -89 3 -177 6 -194 6 -26 4 -31 -13 -31 -11 0 -34 5 -52 11 l-31 11 -1 106 -1 107 -20 -60 c-11 -33 -22 -84 -25 -112 l-6 -53 -39 0 c-48 0 -78 15 -78 38 0 24 -50 175 -63 187 -6 7 -8 -31 -3 -112 6 -123 6 -123 -17 -123 -12 0 -32 3 -44 6 -23 6 -23 8 -23 193 0 103 3 191 7 194 10 10 54 7 91 -6z m-1941 -752 c111 -291 204 -534 206 -539 1 -4 39 52 83 125 45 74 117 193 162 266 l80 132 -137 228 c-76 125 -147 244 -159 263 -12 19 -22 38 -22 43 0 4 67 7 149 7 l148 0 86 -152 c47 -84 92 -161 99 -170 11 -15 25 4 108 152 l95 170 154 0 153 0 -14 -22 c-54 -82 -308 -512 -308 -520 0 -6 64 -114 141 -242 78 -127 151 -246 161 -263 l20 -33 -150 0 -149 0 -98 165 c-53 91 -101 165 -105 165 -5 0 -30 -37 -56 -82 -26 -46 -69 -120 -96 -165 l-49 -83 -282 0 -282 0 -22 58 c-12 31 -32 83 -43 115 l-21 57 -190 0 c-144 0 -189 -3 -189 -12 0 -7 -17 -58 -38 -113 l-38 -100 -132 -3 c-110 -2 -132 0 -132 12 0 8 52 151 116 318 64 167 152 397 195 512 44 115 84 217 90 228 9 17 21 18 136 16 l127 -3 203 -530z m-1806 423 c34 -57 107 -176 162 -265 l100 -163 22 33 c12 17 79 127 150 242 70 116 134 220 141 233 14 21 21 22 139 22 l125 0 -2 -537 -3 -538 -132 -3 -133 -3 -2 307 -3 306 -124 -196 -123 -197 -56 3 -56 3 -121 192 -120 191 -3 -304 -2 -304 -135 0 -135 0 0 540 0 540 124 0 124 0 63 -102z m3389 -438 l0 -540 -135 0 -135 0 0 540 0 540 135 0 135 0 0 -540z m-1028 -777 l15 -78 -153 -379 c-85 -209 -153 -380 -151 -381 1 -1 97 17 212 40 116 23 213 39 217 35 5 -3 13 -33 19 -65 6 -33 14 -65 17 -72 4 -6 58 125 121 290 63 166 141 371 174 455 l59 152 132 0 131 0 62 -162 c33 -90 125 -328 202 -531 78 -202 141 -372 141 -377 0 -6 -52 -10 -134 -10 l-134 0 -43 115 -42 115 -186 -2 -185 -3 -41 -110 -40 -110 -138 -3 c-75 -1 -137 -1 -137 1 0 3 7 21 16 42 8 20 13 39 10 42 -3 3 -165 -27 -361 -67 -196 -39 -359 -69 -362 -66 -8 8 -33 118 -33 147 0 23 40 127 195 499 96 233 107 261 103 265 -2 3 -94 -13 -203 -35 -110 -21 -201 -37 -203 -35 -7 7 -41 170 -42 197 0 24 5 28 38 34 20 4 177 35 347 69 171 35 322 63 336 64 25 1 27 -3 41 -76z m-2105 -24 c33 -11 79 -36 102 -56 127 -109 129 -317 4 -408 -23 -16 -42 -32 -42 -35 -1 -4 15 -12 36 -19 92 -34 162 -158 149 -264 -18 -137 -114 -234 -264 -266 -31 -6 -156 -11 -302 -11 l-250 0 0 540 0 540 253 0 c229 0 259 -2 314 -21z m1135 -495 c109 -283 201 -526 204 -540 l6 -24 -135 0 -135 0 -42 115 -42 115 -186 -2 -186 -3 -40 -112 -41 -113 -139 0 c-128 0 -138 1 -131 18 4 9 94 244 200 522 106 278 196 513 200 523 6 15 23 17 139 17 l131 0 197 -516z m2849 500 c114 -33 204 -117 234 -217 20 -68 19 -171 -2 -231 -21 -58 -88 -136 -144 -168 -21 -12 -39 -24 -39 -28 0 -3 61 -98 134 -210 l135 -205 -142 -3 c-77 -1 -146 -1 -152 2 -7 2 -62 86 -124 185 l-113 181 -49 0 -49 0 0 -185 0 -185 -135 0 -135 0 0 540 0 540 263 0 c211 0 274 -3 318 -16z"/>
<path d="M5403 4578 c-15 -7 -23 -20 -23 -36 l0 -26 30 29 c43 41 40 56 -7 33z"/>
<path d="M5413 4434 c-31 -13 -33 -18 -33 -61 l0 -46 26 24 c22 20 54 75 54 94 0 8 -11 5 -47 -11z"/>
<path d="M2621 3955 c-28 -81 -51 -153 -51 -161 0 -11 21 -14 105 -14 77 0 105 3 105 13 0 12 -98 298 -104 305 -2 1 -27 -63 -55 -143z"/>
<path d="M4216 2764 c-5 -10 -30 -83 -56 -161 l-49 -143 110 0 c60 0 109 4 109 9 0 5 -22 71 -49 147 -26 77 -50 146 -53 153 -3 12 -6 10 -12 -5z"/>
<path d="M1160 2765 l0 -95 80 0 c74 0 82 2 112 29 27 24 33 36 33 71 0 34 -6 47 -28 66 -25 21 -38 24 -113 24 l-84 0 0 -95z"/>
<path d="M1160 2350 l0 -110 101 0 101 0 34 34 c27 27 34 42 34 73 0 81 -53 113 -185 113 l-85 0 0 -110z"/>
<path d="M2252 2753 c-6 -15 -29 -80 -51 -143 -21 -63 -42 -123 -46 -132 -7 -17 2 -18 104 -18 82 0 111 3 111 13 0 6 -24 79 -54 160 -50 141 -53 147 -64 120z"/>
<path d="M5132 2734 l3 -126 100 0 c113 1 137 12 169 76 24 50 15 99 -29 143 l-33 33 -106 0 -107 0 3 -126z"/>
</g>
</svg>
