<svg xmlns="http://www.w3.org/2000/svg" viewBox="0 0 500 270">
  <path d="M 476,168 H 416 L 500,47 H 385 l -17,37 5,3 3,-7 h 56 L 347,201 h 121 l 16,-36 -5,-3 z" fill="#2b3089"/>
  <path d="M 191,47 H 144 L 126,141 81,47 H 29 l -2,7 c 3,0 9,0 13,0 L 14,194 H 1 L 0,201 h 50 l 17,-96 48,96 h 37 l 27,-93 h 11 l 1,-7 z" fill="#2b3089"/>
  <path d="M 293,37 c 1,-1 4,-11 5,-12 0,-2 1,-4 2,-7 1,-1 2,-3 2,-6 1,-1 3,-4 4,-10 -3,-3 -8,-3 -10,9 l -3,7 c -1,3 -2,5 -2,8 0,2 -1,3 -2,3 -2,7 -1,11 4,8 z" fill="#2b3089"/>
  <path d="M 270,38 c -1,2 2,6 7,-1 1,-2 2,-5 3,-8 1,-3 2,-5 3,-8 1,-1 1,-4 1,-6 2,-6 8,-14 2,-13 -4,0 -6,7 -6,9 0,2 -4,7 -3,9 l -7,18 z" fill="#2b3089"/>
  <path d="m 307,36 c 5,0 5,-12 8,-17 0,-4 3,-6 4,-10 5,-5 -1,-7 -2,-7 -1,1 -3,1 -4,6 0,3 -1,6 -3,8 -1,1 -3,3 -4,7 -2,5 -2,9 1,9 z" fill="#2b3089"/>
  <path d="M 240,37 c 3,4 6,-1 5,-4 1,-2 0,-5 1,-7 1,-2 1,-6 2,-8 0,-2 2,-4 1,-5 0,-2 2,-3 2,-5 2,-4 -3,-8 -6,-3 -1,1 -1,4 -2,6 1,1 -1,2 -1,3 -1,3 0,5 -1,7 0,1 0,2 -1,2 0,1 -1,2 -1,3 1,4 -2,8 0,11 z" fill="#2b3089"/>
  <path d="m 256,39 c 2,1 5,-2 5,-9 1,-3 2,-7 3,-10 1,-1 1,-2 2,-3 0,-1 0,-2 1,-3 1,-2 3,-4 4,-7 0,-1 -5,-4 -7,1 -1,3 -3,5 -3,9 -1,1 -2,5 -3,9 -1,2 -1,4 -2,6 -3,5 -1,6 0,7 z" fill="#2b3089"/>
  <path d="m 339,44 c 4,0 4,-8 6,-10 1,-2 1,-4 1,-6 2,-4 3,-9 5,-13 3,-5 1,-7 -1,-7 -2,0 -5,2 -5,6 -1,1 -1,3 -2,4 -1,2 0,3 -1,5 -2,3 -3,8 -4,13 -1,3 -3,9 1,9 z" fill="#2b3089"/>
  <path d="m 325,44 c 2,0 5,-3 5,-9 l 3,-9 c 0,-1 0,-2 0,-3 2,-2 2,-6 3,-9 6,-6 -4,-9 -6,-1 -1,3 -2,6 -3,9 0,2 -1,4 -2,5 0,3 -2,6 -2,9 -2,5 -1,8 2,8 z" fill="#2b3089"/>
  <path d="m 347,47 c 0,4 4,8 8,-1 0,-6 3,-5 4,-12 0,-3 1,0 3,-7 0,-2 3,-6 4,-8 4,-7 -5,-9 -7,-1 0,3 -2,4 -3,7 -2,5 -2,9 -5,13 -1,3 -3,6 -4,9 z" fill="#2b3089"/>
  <path d="M 289,129 c -3,-1 -4,4 -10,5 -2,0 -3,1 -4,0 -1,1 -3,1 -5,1 -2,0 -3,1 -4,1 -1,0 -3,0 -4,1 -2,0 -3,0 -4,1 0,-1 0,-2 1,-4 0,-2 2,-3 1,-5 1,-6 2,-8 4,-9 2,-3 2,-6 4,-8 0,-1 1,-2 1,-4 0,-2 2,-4 3,-6 0,-2 2,-4 2,-6 0,-2 2,-4 3,-6 1,-1 4,-8 -1,-7 -2,1 -3,4 -4,6 l -3,7 c -2,5 -4,11 -7,16 -1,2 -1,3 -2,5 -1,2 -1,6 -3,8 -1,3 -3,6 -4,9 -1,3 -5,5 -5,8 0,3 4,4 7,4 3,-1 5,-2 7,-2 4,0 8,-2 11,-2 4,0 7,-1 10,-2 -2,3 -1,6 -3,9 0,1 -2,3 -2,4 -2,3 -4,5 -6,7 -2,0 -4,2 -6,1 -3,-4 -8,-4 -10,1 0,2 1,5 7,5 3,0 6,1 8,-1 1,0 2,-1 3,-1 2,-1 4,-2 6,-4 1,-1 1,-2 2,-2 1,-3 3,-6 5,-9 1,-2 2,-3 2,-5 1,-3 2,-5 2,-7 0,1 3,-6 -3,-7 z" fill="#2b3089"/>
  <path d="m 255,105 c 2,-1 4,-3 4,-6 0,-2 -1,-3 -2,-5 -2,-2 -5,-3 -8,-2 -1,0 -2,1 -2,2 0,1 0,3 -1,4 1,2 2,4 3,6 2,2 4,2 6,1 z" fill="#2b3089"/>
  <path d="m 294,95 c -2,-2 -5,-1 -7,0 -2,1 -4,2 -5,3 -2,2 2,15 10,8 2,-3 5,-5 4,-9 0,-1 -1,-1 -2,-2 z" fill="#2b3089"/>
  <path d="M 284,217 c -1,2 -12,6 -14,7 -3,1 -4,4 -7,5 l -12,6 c -2,-1 -5,-2 -7,-2 -21,-17 -21,-18 -33,-20 -1,0 -2,1 -2,2 0,1 1,2 -1,2 -3,0 -4,3 -5,5 0,2 -1,4 -1,7 -2,4 -1,9 -4,13 -1,3 -1,7 -2,10 0,3 1,7 0,9 2,3 6,4 9,3 2,-1 4,-1 6,-3 4,0 5,-4 9,-5 l 10,-5 c 2,0 3,-3 5,-3 3,-1 5,-3 8,-3 2,2 4,1 5,0 2,-1 3,1 4,2 l 12,12 c 1,1 3,6 5,6 2,2 4,5 7,5 1,0 1,-1 2,-1 3,-2 1,-6 1,-8 l 8,-32 c 1,-3 2,-6 4,-8 2,-1 3,-2 4,-3 1,-2 0,-4 -1,-5 -4,-1 -7,2 -10,3 z m -46,24 c -1,1 -4,2 -6,3 -2,1 -4,4 -7,4 -2,1 -4,2 -7,2 -2,2 -5,2 -7,5 -3,1 -5,2 -8,2 -2,-1 -1,-7 0,-9 1,-2 1,-4 1,-6 0,-2 0,-3 1,-4 l 4,-16 c 1,-1 3,0 4,-2 3,0 5,2 7,3 3,1 5,4 8,6 3,1 4,4 7,5 1,1 3,1 3,3 0,1 -1,2 -1,3 z m 41,-8 c -1,3 -2,6 -3,9 0,4 -3,13 -2,17 0,0 0,1 -1,1 0,0 -1,0 -1,-1 -1,-3 -8,-10 -10,-12 -8,-7 -6,-6 -5,-7 2,-1 4,-4 7,-4 1,0 3,-1 3,-2 2,-1 4,-1 6,-3 3,-1 5,-3 7,-3 0,2 -1,3 -2,5 z" fill="#2b3089"/>
  <path d="M 279,44 A 88,88 0 0 0 191,124 c -5,44 25,80 74,80 a 88,88 0 0 0 89,-80 C 357,80 330,44 279,44 Z m 36,85 c -5,27 -27,48 -53,45 -26,-3 -39,-27 -34,-54 5,-28 27,-48 53,-45 27,3 39,27 34,54 z" fill="#2b3089"/>
</svg>
