<?xml version="1.0" encoding="UTF-8"?>
<svg xmlns="http://www.w3.org/2000/svg" width="632.4" height="200" viewBox="0 0 632.4 200">
  <g stroke-width="4.81">
    <path d="M.27 143.96c-7.09-49.6 128.6-109.48 303.09-133.76C477.86-14.08 625.05 6.45 632.14 56.04 639.25 105.64 503.53 165.51 329.05 189.79 154.57 214.07 7.36 193.55.27 143.96z" fill="#ffd219"/>
    <g fill="#00903a">
      <path d="M484.27 55.53h-13.17l-23.76 90.97h15.92l5.63-22.29h17.58l5.63 22.29h15.93l-23.76-90.97zm-11.18 52.06l4.44-17.56h.31l4.44 17.56h-9.18z"/>
      <path d="M411.92 99.79l13.85-44.29h17.42v90.99h-15.66l.02-43.47-15.58 46.9h-.05l-15.59-46.9.02 43.5h-15.67V55.53h17.42l13.86 44.29z"/>
      <path d="M161.96 53.05c-17.43 0-31.55 21.32-31.55 47.63s14.12 47.64 31.55 47.64 31.55-21.33 31.55-47.64-14.12-47.63-31.55-47.63zm0 74.75c-8.57 0-15.52-12.14-15.52-27.12s6.95-27.11 15.52-27.11 15.52 12.14 15.52 27.11-6.95 27.12-15.52 27.12z"/>
      <path d="M255.28 55.58l-25.6 36.17 26.49 54.74-19.35.02-17.94-38.61-4.15 6.24v32.34h-15.68V55.58h15.66l.02 28.86 21.64-28.84z"/>
      <path d="M553.07 146.49l-23.68-49.3.03 49.3h-15.68V55.58l14.45.05h1.44l23.44 48.93V55.58h15.52v90.86z"/>
      <path d="M96.93 76.15H80.96V55.67l47.57-.09v20.52l-15.97.01v70.38H96.93z"/>
      <path d="M63.88 88.58c-6.46-1.42-24.29-3.76-17.46-14.18 2.87-4.4 12.1-8.21 22.33 4.45l8.92-16.93c-3.78-3.03-12.64-9.73-21.88-10.49-9.39-.77-25.41 4.74-27.2 26.05-1.79 21.31 7.35 28.25 23.55 33.36 0 0 12.6 2.72 10.07 10.42-1.59 4.86-6.74 7.78-14.65 5.36-4.49-1.36-9.38-5.1-11.29-8.17l-9.08 17.83c2.93 2.49 13.96 10.78 24.26 11.62 12.49 1.02 26.64-9.82 28.34-29.99s-10.04-28.04-15.91-29.33z"/>
      <path d="M591.77 55.58h-15.91v90.9h15.91z"/>
      <path d="M339.92 26.58c12.16 0 20.95 3.73 26.37 11.19s7.53 16.88 6.31 28.28c-1.47 13.8-6.17 27.27-14.09 40.4-7.92 13.13-17.83 23.55-29.73 31.27-11.9 7.71-24.29 11.57-37.19 11.57-12.43 0-21.14-3.84-26.14-11.53-5.01-7.69-6.87-17.5-5.6-29.46 1.26-11.84 5.76-24.42 13.5-37.75 7.73-13.32 17.45-23.99 29.14-31.98 11.69-7.99 24.16-11.99 37.43-11.99zm-38.45 105.51c8.9 2.96 17.44-1.63 22.61-6.54 13.26-12.57 23.47-39.88 24.74-58.6.8-11.81-2.32-17.65-5.23-21.63-3.88-5.32-12.77-5.7-18.72-3.61-7.48 2.62-17.71 7.79-28.75 36.29-7.35 18.97-12.65 48.12 5.34 54.1z"/>
      <path d="M60.07 163.23c0-.14.03-.87.03-1.04 0-.38-.03-2.33-.03-2.79 0-.17.03-1.07.03-1.31 0-.26-.09-1.69-.09-2 0-.52.12-1.37.65-1.57.15-.06 2.36-.12 2.71-.12.12 0 .44.03.79.03.33.03.65.06.77.06.58 0 1.18-.12 1.76-.12.09 0 .53.03.62.03.06 0 .38-.03.47-.03.06 0 .44.06.53.06h.38c.47 0 1.18.17 1.3.24.12.03.23.09.35.11.24.06.48.09.71.17.15.09.29.2.44.26s.29.06.44.12c.12.06.27.14.39.2.15.09.33.12.47.17.23.12 2.71 1.57 3.85 4.15.06.12.68 1.57.74 1.74.12.41.33 1.86.33 2.21 0 .11-.03.64-.03.75 0 .17.06.9.06 1.07 0 .49-.03.61-.27 1.69-.18.96-.21 1.08-.35 1.37-.06.18-.15.31-.23.49s-.15.44-.23.64c-.12.2-.27.38-.41.59-.15.23-.27.47-.42.69-.15.2-1.32 1.49-1.44 1.6-.41.37-1.2.84-1.51.98-.29.11-.58.2-.88.29-.21.08-.42.18-.62.26-.33.11-.71.18-1.06.26-1.1.26-1.71.26-4.74.26h-.09c-.38 0-2.24-.09-2.68-.09h-.88c-.5 0-1.88 0-1.88-1.02 0-.14.06-.81.06-.96 0-.53-.09-2.88-.09-3.19 0-.09.03-.84.03-1.45.03-.7.06-1.49.06-2.21 0-.2-.09-1.13-.09-1.37 0-.11.06-.69.06-.84l.01-.4zm6.21-3.89c-.33.06-.35.09-.56.26-.35.33-.62.52-.71 1.57-.03.17 0 1.07 0 1.28 0 .32-.09 1.84-.09 2.18 0 1.07 0 2.93.12 3.95.06.81.15 1.63 3.15 1.63.23 0 .47 0 .71-.04.53-.08 1.62-.46 2.03-.69 1.65-.99 2.03-3.89 2.03-4.35 0-.17-.03-.99-.09-1.28-.06-.29-.15-.55-.21-.84-.03-.17-.06-.38-.12-.55-.12-.24-.29-.44-.44-.67-.09-.12-.15-.23-.21-.35-.29-.49-.47-.61-.97-.93-.15-.12-.85-.66-1.03-.76-.74-.37-2.24-.46-2.65-.46-.21 0-.59.03-.97.06z"/>
      <path d="M86.87 154.3c.12 0 .83-.06.97-.06s.89-.03 1.06-.03c.27 0 1.56.09 1.85.09.18 0 1-.06 1.18-.06.7 0 .99.37.99.96 0 .11-.03.75-.03.9 0 .2.09 1.16.09 1.37 0 .35-.03.38-.33.75-.1.14-.23.23-.39.29-.23.09-.38.15-.7.15-.15 0-.74-.04-.89-.04-.17 0-1.08.06-1.32.06-.09 0-.21 0-.33-.03-.27 0-.5-.06-.77-.08-.27-.04-.5-.04-.76-.04-1.65 0-2.12.23-2.12 1.42 0 1.37 0 1.86.97 2 .65.09.71.09 1.09.09.23 0 1.33-.09 1.59-.09.18 0 1.14.12 1.35.12.39 0 .79-.06 1.18-.06.23 0 .68 0 .83.06.09.06.53.35.53.87 0 0-.03.67-.06.81-.03.47-.03.55-.03 1.16 0 .24-.03.29-.06.59-.06.38-.15 1.02-1.29 1.04h-1.5c-.12 0-.64-.03-.76-.03-.09 0-.54.03-.62.03-.12 0-.79-.1-.94-.1-.29 0-.59.06-.89.06h-.23c-.18 0-.5.09-.62.15-.53.24-.53.96-.53 1.22 0 1.86 0 2.49 2.36 2.49.18 0 1.03-.03 1.2-.03.15 0 .83.03 1.0.03.21 0 1.35-.03 1.56-.06.21-.04.41-.04.62-.04.15 0 .94.04 1.2.55.21.41.21.96.21 1.22v.21c.03.26.12.55.15.81v.76c0 .35-.03.96-1.0.96-.06 0-.27-.03-.47-.04-.21-.03-.44-.03-.54-.03-.09 0-.38.04-.68.04-.29.03-.58.06-.7.06-.09 0-.38-.03-.68-.03s-.59-.03-.71-.03c0 0-.64.03-1.26.04-.65.03-1.33.06-1.47.06-.18 0-.71-.04-1.27-.06-.53 0-1.09-.04-1.3-.04h-.94c-.38.04-.79.04-.94.04s-.56 0-.85-.27c-.23-.2-.47-.69-.47-1.1 0-.12.03-.67.03-.79 0-.35-.06-.66-.06-1.02v-.52c0-.2-.06-1.1-.06-1.3 0-.5.03-1.25.03-1.74 0-.12.03-.64.03-.76 0-.17-.03-1.02-.03-1.21 0-.14-.03-.9-.03-1.08v-2c0-.17 0-.32.03-.49 0-.12.06-.67.06-.78 0-.18-.09-1.05-.09-1.22 0-.47.06-.9.06-1.33 0-.17.06-1.33.06-1.49 0-.23-.09-1.25-.09-1.48 0-.87.09-1.1.15-1.22.09-.18.38-.73 1.03-.73.18 0 .94.04 1.12.04.23 0 1.41-.06 1.68-.06.21 0 1.24.06 1.44.06h1.09z"/>
      <path d="M105.76 157c0 .12.03.69.03.81 0 .27-.03.55-.35.76-.15.11-.5.23-.83.23-.12 0-.15 0-.53-.12-.29-.06-2.03-.2-2.06-.2-.27 0-.53.06-.94.29-.23.12-.62.35-.62 1.04 0 .43.33.98.59 1.31.29.2 1.68 1.22 1.68 1.25.12.08.21.23.33.31.09.06.21.09.33.17.09.06.53.52.62.64.23.2.5.38.74.61.68.67.74.73.94 1.04.58.93 1.0 1.72 1.0 3.63 0 .73-.03 1.28-.21 1.68 0 .06-.53 1.28-.56 1.31-.12.17-.47.61-.64.84-.54.66-1.39 1.27-1.45 1.31 0 0-1.62.79-2.32.93-.23.03-1.51.06-1.76.09-.18 0-.35.03-.5.03-.23 0-1.24-.12-1.47-.14-.89-.06-1.29-.09-1.88-.41-.44-.24-.5-.41-.5-.67 0-.12.03-.7.03-.81 0-.27-.03-.5-.03-.73 0-.17.09-.99.09-1.19 0-.09-.06-.55-.06-.66 0-.64.7-.67 1.44-.67.27 0 .68.04 1.21.21.15.06.29.11.47.14 0 0 1.2.04 1.32.04.15 0 .59 0 .98-.2.38-.2.7-.55.7-1.33 0-.29-.06-.47-.15-.73-.18-.43-.29-.59-.79-.96-.09-.08-.56-.52-.68-.61-.09-.08-.64-.41-.77-.49-.29-.2-1.65-1.42-1.94-1.72-.27-.2-.59-.52-.83-.9-.53-.78-.62-1.08-.77-1.63-.29-1.04-.35-1.28-.35-2 0-1.21.09-1.45.27-1.94.18-.52.5-1.33 1.32-2.04.91-.78 2.53-1.19 2.92-1.25.18-.03 1.62-.2 2.32-.2 1.09 0 2.47.26 2.94.41.56.18.68.29.74.58.03.08-.03.55-.03.67 0 .08.03.58.03.67v.61z"/>
      <path d="M117.18 162.51c0-.14.03-1.19.03-1.33 0-.12-.03-.64-.03-.79 0-.09.03-.52.03-.61 0-.12-.03-.61-.06-.73v-.96c-.03-.43-.15-2.61-.15-2.76 0-.43.12-.61.59-.9.17-.12.29-.14.47-.14h.18l.03.03h.06l.09-.03c.17 0 1.29-.03 1.41-.03l.58-.06c.71 0 .89.06 1.89 1.72.27.41.74 1.04 1.0 1.48.12.17.2.38.32.59.12.2.29.38.44.58.12.14.59.81.71.96.35.49.94 1.25 1.32 1.74.33.43.77 1.01 1.12 1.01.41 0 .74-.55.94-.9.15-.2.89-1.25 1.03-1.48.12-.2.23-.38.35-.58.18-.29.44-.55.62-.87.09-.18.17-.35.27-.49.18-.38.41-.73.58-1.07.23-.47.42-.94.68-1.37.12-.14.21-.29.29-.47.09-.14.15-.29.23-.41.06-.06.41-.38.85-.38.23 0 1.27.06 1.5.06.27 0 .52-.06.77-.06.12 0 .56.06.64.06.53 0 .97.52.97.9 0 .06-.06.76-.06.9-.03.52-.03 1.07-.03 1.6v1.94c0 .18-.12 1.1-.12 1.31 0 .38.12 2.18.12 2.61 0 .14-.04.93-.04 1.1 0 .38.09 2.29.09 2.73 0 .29-.03 1.74-.03 2.06v.38c-.03.21-.17 1.28-.17 1.51 0 .21.15 1.25.15 1.49 0 .08-.04.52-.04.64v.29c0 .67-.52.99-1.41.99-.21 0-1.14-.03-1.35-.03h-.83c-.09 0-.56.03-.68.03-.23 0-.68-.18-.68-.84 0-.12-.06-.67-.06-.79 0-.17.06-1.1.06-1.31 0-.17-.03-.9-.03-1.04 0-.17.06-.98.06-1.16 0-.26-.03-.55-.03-.82 0-.14.06-.84.06-1.02v-.98c0-.09-.06-.43-.06-.52 0-.17-.27-.49-.5-.49-.56 0-1.06.64-1.26.9-.27.31-.5.64-.79.92-.44.41-.5.47-.77.84-.58.84-.77.98-1.32.98-.12 0-.21-.03-.35-.12-.35-.17-.39-.2-.68-.64-.29-.47-1.08-1.42-1.5-1.86-.12-.12-.23-.2-.33-.31-.12-.12-.2-.26-.32-.41-.62-.9-.91-1.19-1.24-1.19-.18 0-.5.09-.62.21 0 .03-.29.35-.29 1.19v1.53c0 .17.03 1.05.03 1.22 0 .2-.15 1.14-.15 1.36 0 .38.06 2.27.06 2.7 0 .12.03.73.03.84 0 .61-.56.84-.94.84-.09 0-.41-.03-.74-.06s-.68-.03-.79-.03c-.09 0-.35.03-.62.03-.23.03-.5.06-.62.06-.7 0-.79-.17-.97-.49-.15-.31-.17-.37-.17-.61 0-.24.03-1.42.03-1.68 0-.14-.03-.81-.03-.96 0-.64.09-1.25.09-1.86 0-.26-.03-1.49-.03-1.77v-1.13c0-.15-.03-.9-.03-1.07 0-.41.06-.79.06-1.19 0-.08-.03-.49-.03-.61 0-.12.06-.78.06-.96z"/>
      <path d="M145.81 171.45c-.21 0-.35.03-.91.14-.68.15-.94.21-1.2.5-.17.2-.65 1.13-.71 1.79 0 .29-.03.32-.29.59-.23.24-.27.26-1.03.26-.21 0-1.18-.03-1.41-.03-.12 0-.74.06-.89.06-.15 0-.88-.12-.91-.14-.21-.11-.47-.5-.47-.87 0-.2.02-.47.12-.69.06-.15.12-.29.15-.44.06-.17.06-.38.09-.55.03-.24.06-.41.09-.61.03-.17.23-.9.27-1.07.08-.43.08-.87.14-1.28.06-.29.33-1.48.41-1.8.06-.23.15-.49.21-.73.09-.43.12-.87.21-1.28.03-.18.41-1.94.53-2.18.06-.18.18-.35.21-.55.03-.11.03-.26.06-.37.03-.21.39-2.12.47-2.39.03-.12.06-.26.09-.38.03-.17.06-.32.12-.5.06-.22.18-.45.23-.69.09-.23.12-.47.15-.73.33-2.21.79-3.17 2.44-3.17.12 0 .41 0 .74.04.79.06 1.8 0 3.0-.06.77-.12 1.62.09 2.18.5.5.38.68.69.89 1.51.12.38.2.79.33 1.18.08.33.23.64.32.96l.23 1.1c.03.17.03.35.09.53.03.14.09.29.15.43.06.2.29.96.41 1.57.09.55.09.61.21 1.01.12.35.35 1.28.39 1.45.02.29.02.59.08.84.06.17.15.35.21.52.03.17.23.9.27 1.08.06.29.06.61.12.9.06.2.15.38.21.58.08.33.29 1.1.32 1.4.03.31.03.38.12.57.15.38.35 1.16.44 1.63.06.24.09.44.15.64.06.2.17.38.2.55.03.12.09.79.09.84 0 .55-.71.55-1.27.55-.23 0-1.35.09-1.62.09-1.79 0-2.03-.17-2.41-1.22-.09-.26-.12-.52-.24-.76-.06-.12-.12-.24-.17-.35-.17-.41-.29-.58-.83-.81-.29-.11-1.47-.18-1.8-.18h-.93zm-.95-7.37c-.03.2-.09.41-.15.61-.09.32-.17.64-.17.99 0 .98.73 1.39 1.86 1.39.29 0 .91-.06 1.35-.14.29-.06.62-.15.62-.73 0-.11 0-.23-.04-.35-.08-.84-.12-1.1-.35-1.83-.09-.29-.21-.58-.27-.9-.09-.29-.12-.64-.17-.93-.06-.2-.15-.38-.21-.58-.09-.23-.23-.82-.29-1.05-.18-.64-.56-.64-.68-.64-.21 0-.38.15-.5.32-.23.32-.62 1.76-.64 1.86-.03.23-.06.46-.09.69-.06.23-.12.44-.15.67-.06.2-.08.41-.12.61z"/>
      <path d="M156.29 162.42c0-.96.12-1.88.15-2.84 0-.35-.04-2-.04-2.38 0-.17-.06-.98-.06-1.16 0-.81 0-1.86 1.2-1.86.12 0 .65.06.77.06s.68-.03.79-.03c.18 0 1.06.03 1.27.03h.97c.15 0 .88-.03 1.06-.03.33 0 .82-.03 1.14-.03.21 0 1.62.06 1.82.12.23.03 1.21.29 1.5.38.21.11 1.32.61 1.39.64.47.26 1.06.75 1.24.93.06.09.85 1.16.91 1.25.09.12.68 1.37.71 2.24 0 .09-.03.55-.03.64 0 .18.06.98.06 1.16 0 .64-.35 2.23-.73 2.99-.27.47-.97 1.31-1.3 1.65-1.03 1.07-1.14 1.19-1.14 1.56 0 .41.27.61.52.82.62.47 1.41.84 1.62.9.17.06.33.09.5.14.44.26.44.67.44.87 0 .2-.03.43-.03.63 0 .12.06.64.06.76 0 .18-.09 1.08-.09 1.28 0 .09.03.52.03.61 0 .9-1.09 1.02-1.24 1.02-1.26 0-2.44-.93-2.65-1.1-.44-.35-1.32-1.13-1.88-1.77-.09-.12-.21-.26-.33-.35-.17-.14-.35-.26-.56-.37-.09-.09-.56-.47-.64-.53-.77-.49-1.03-.52-1.47-.52-.15 0-.39.12-.44.15-.27.17-.33.31-.44.58-.17.38-.21.47-.21 1.28 0 .2 0 .26.09.87.03.12.15.79.15.93 0 .55-.42.82-.79.82-.21 0-.42-.06-.62-.09-.18-.03-.38-.06-.59-.06 0 0-.56.03-.62.03-.21.03-.39.03-.68.03-.15 0-.91.04-1.06.04-.74 0-.88-.73-.88-1.02 0-.23.06-.47.09-.7.03-.2.03-.41.03-.58 0-.18-.03-.99-.03-1.19 0-.38.03-.78.06-1.19.04-.49.06-.84.06-.98 0-.43-.06-.9-.06-1.33 0-.32-.03-1.51-.03-1.83 0-.15.03-.84.03-1.02 0-.18-.06-1.04-.06-1.25 0-.35 0-.78.03-1.16zm5.57-3.6c-.33.14-.35.2-.5.52-.21.49-.23.58-.23.93 0 .2.06 1.19.06 1.42 0 .2-.06 1.16-.06 1.37 0 .23.09 1.36.09 1.63.02.26.06.69.53.84.15.06.83.08.85.08.08 0 .27-.02.56-.06.27-.06.33-.08.68-.23.15-.06.27-.12.41-.17.12-.08.23-.24.39-.32.12-.14.27-.23.38-.35.27-.2.33-.29.79-1.1.21-.37.59-1.07.59-2.15 0-.55-.33-1.86-1.62-2.26-.62-.17-.7-.2-1.15-.2-.06 0-1.21-.11-1.21-.11-.15 0-.35.09-.56.18z"/>
      <path d="M173.09 162.89s.47-1.89.5-2c.12-.29.27-.61.38-.9.18-.35.21-.43.62-1.07.12-.14.52-.93.68-1.1.12-.17.29-.32.44-.49.09-.09.5-.66.62-.76.18-.14.35-.26.5-.38.15-.12.29-.26.44-.38.27-.21.91-.64 1.43-.82.17-.06.35-.12.54-.18.32-.12.58-.26.88-.35.53-.17 2.62-.35 2.65-.35h.09s1.06.17 1.12.17c.68.09 1.38.17 2.03.44.29.12.62.29.91.43.35.17.74.29 1.09.49.41.29 1.3 1.16 1.47 1.33.17.2.35.43.53.64.12.12.27.23.39.38.27.26.41.47.58.87.09.24.18.43.27.67.12.29.29.55.44.84.27.55.47 1.34.56 2.29 0 .2.15 2.53.15 2.61 0 .88-.38 2.88-1.2 4.76.35.06.47.06 1.41.06 0 0 .47 0 .47.52 0 .14-.06.93-.06 1.1 0 .12.06.61.06.7 0 .11-.03.57-.03.69 0 .09.06.55.06.64 0 .58-.35.61-.71.61-.12.04-.23.06-.35.06-.44.09-.89.12-1.32.12-1.24 0-1.68-.26-2.68-1.1-.15.06-.27.09-.41.15-.17.08-.35.22-.53.31-.29.17-.62.26-.91.38-.23.12-.47.23-.74.29-.06.03-1.56.29-1.68.31-.33.04-.62.06-.94.06-.06 0-1.0 0-1.47-.08-.21-.04-.41-.12-.62-.15-.29-.06-.56-.08-.83-.14-.29-.09-.56-.24-.85-.35-.27-.08-.5-.14-.77-.26-.21-.1-.41-.2-.62-.35-.18-.11-.33-.26-.5-.37-.15-.12-.33-.21-.5-.32-1.12-.76-2.26-2.47-2.42-2.74-.08-.17-.18-.35-.26-.49-.09-.2-.21-.41-.33-.59-.65-1.28-.71-3.95-.71-4.53 0-.08-.02-.55-.02-.67 0-.06.12-.92.15-1.04zm14.42.67c0-.14 0-.26-.03-.38-.03-.26-.56-1.6-.68-1.77-.17-.32-.5-.58-.74-.87-.21-.24-.35-.47-.59-.64-.23-.17-.5-.29-.79-.43-.83-.38-.94-.44-2.61-.44-.09 0-.18 0-.27.04-.18.03-.33.08-.5.12-.12.03-.23.06-.33.08-.2.06-.94.52-1.14.67-.47.35-.95.96-1.14 1.31-.12.14-.18.32-.29.47-.24.35-.27.38-.35.87-.03.2-.06.41-.09.58-.15.84-.18 1.02-.18 1.19 0 .23.06 1.07.09 1.25 0 .03.44 1.65.44 1.69.06.2.18.41.44.87.29.52 1.35 1.45 1.62 1.57.18.11.39.11.56.17.15.03.27.09.39.11.29.12.52.2 1.65.2.97 0 1.08-.06 1.62-.35-.54-.55-.85-.9-.85-1.28 0-.09.27-.78.59-1.07.09-.06.18-.12.29-.17.23-.2.27-.24.41-.24.39 0 .68.12 1.1.5.15.14.32.31.56.31.03 0 .09-.03.09-.03.15-.06.35-.73.35-.73.03-.12.03-.2.06-.32.03-.14.06-.29.12-.41.03-.2.27-1.04.27-1.51 0-.31-.03-.63-.03-.96l-.01-.4z"/>
      <path d="M194.89 155.45c0-.14.03-.2.21-.61.15-.32.27-.61.83-.61.17 0 .35.06.52.09.21.03.41.03.62.03s.29-.03.52-.03c.21-.03.44-.03.54-.03.15 0 1.38.09 1.5.12.32.15.5.41.5.72 0 .15-.03.29-.06.44-.03.26-.06 2.18-.06 2.41 0 .27.06 1.54.06 1.8 0 .2-.06 1.19-.06 1.42 0 .12.03.69.03.84 0 .14-.09.93-.09 1.14 0 .26.06 1.53.06 1.83 0 .08-.03.46-.03.55 0 .03.06.49.09.73 0 .14 0 .29.03.44.03.46.29 1.94.41 2.18.23.43.68.9 1.09 1.1.64.35 1.74.47 2.15.47.39 0 .77-.06 1.18-.17.56-.14.97-.29 1.5-.96.56-.79.56-.93.58-1.63 0-.2.09-1.22.09-1.45 0-.12-.03-.73-.03-.84v-.76c0-.08.06-.46.06-.55 0-.14-.06-.75-.06-.9 0-.35.03-.84.06-1.16.03-.2.12-1.07.12-1.21 0-.15-.15-1.86-.15-2.06 0-.27.06-1.6.06-1.91 0-.15-.03-.96-.03-1.16 0-.55.12-.84.27-1.05.15-.26.27-.35.97-.35h.44l.06.03h.06l.06-.03h.12c.27 0 1.62-.08 1.91-.08.41 0 .58.12.77.32.12.2.35.58.39.99v1.02c0 .11-.03.69-.03.81v.52s.03.98.03 1.07c0 .08-.06.55-.06.67 0 .12.03.66.03.78 0 .18-.09 1.08-.09 1.25 0 .14 0 .2.03.55.03.41.06.79.06 1.19 0 .55-.03 2.29-.06 2.84 0 .15-.06.82-.06.96 0 .06.03.47.03.55 0 .04-.03 1.04-.03 1.19 0 .12-.23 1.6-.23 1.6-.12.55-.33.9-.71 1.48-.44.7-.47.73-1.09 1.16-.77.59-.85.64-1.7 1.02-.62.31-.71.31-1.47.49-.74.18-1.21.26-2.38.26-.21.03-1.18 0-1.39 0-1.24 0-3.53-.41-3.97-.55-.27-.12-.53-.26-.83-.41-1.12-.55-1.26-.73-1.62-1.16-.44-.49-.5-.52-.74-.99-.29-.49-.44-.73-.56-1.16-.09-.32-.15-.69-.23-1.04-.15-.66-.27-1.37-.29-2.06 0-.15.03-.9.03-1.05 0-.32-.03-.61-.03-.93 0-.09.03-.55.03-.64 0-.08-.03-.52-.03-.63 0-.12.03-.73.03-.84 0-.32-.03-.66-.03-.99 0-.26.03-.52.03-.81v-.99c0-.14.03-.84.03-.98 0-.2-.09-1.1-.09-1.33 0-.24.03-1.49.03-1.74v-1.19z"/>
      <path d="M221.72 154.3c.12 0 .83-.06.97-.06s.89-.03 1.06-.03c.27 0 1.56.09 1.86.09.17 0 1.0-.06 1.18-.06.7 0 1.0.37 1.0.96 0 .11-.03.75-.03.9 0 .2.09 1.16.09 1.37 0 .35-.03.38-.33.75-.1.14-.22.23-.38.29-.23.09-.39.15-.7.15-.15 0-.73-.04-.89-.04-.18 0-1.09.06-1.32.06-.09 0-.21 0-.33-.03-.27 0-.5-.06-.77-.08-.26-.04-.5-.04-.76-.04-1.64 0-2.12.23-2.12 1.42 0 1.37 0 1.86.97 2 .65.09.71.09 1.09.09.23 0 1.33-.09 1.59-.09.17 0 1.14.12 1.35.12.38 0 .79-.06 1.18-.06.23 0 .68 0 .83.06.09.06.53.35.53.87 0 0-.03.67-.06.81-.03.47-.03.55-.03 1.16 0 .24-.03.29-.06.59-.06.38-.15 1.02-1.3 1.04h-1.5c-.12 0-.64-.03-.76-.03-.09 0-.53.03-.62.03-.12 0-.79-.1-.95-.1-.29 0-.58.06-.88.06h-.23c-.18 0-.5.09-.62.15-.53.24-.53.96-.53 1.22 0 1.86 0 2.49 2.35 2.49.18 0 1.03-.03 1.21-.03.15 0 .82.03 1.0.03.2 0 1.35-.03 1.56-.06.2-.04.41-.04.62-.04.15 0 .94.04 1.2.55.21.41.21.96.21 1.22v.21c.03.26.12.55.15.81v.76c0 .35-.03.96-1.0.96-.06 0-.27-.03-.47-.04-.21-.03-.44-.03-.54-.03-.09 0-.38.04-.68.04-.29.03-.58.06-.7.06-.09 0-.39-.03-.68-.03s-.59-.03-.71-.03c0 0-.64.03-1.26.04-.65.03-1.33.06-1.47.06-.18 0-.71-.04-1.27-.06-.53 0-1.09-.04-1.3-.04h-.94c-.38.04-.79.04-.94.04s-.56 0-.85-.27c-.23-.2-.47-.69-.47-1.1 0-.12.03-.67.03-.79 0-.35-.06-.66-.06-1.02v-.52c0-.2-.06-1.1-.06-1.3 0-.5.03-1.25.03-1.74 0-.12.03-.64.03-.76 0-.17-.03-1.02-.03-1.21 0-.14-.03-.9-.03-1.08v-2c0-.17 0-.32.03-.49 0-.12.06-.67.06-.78 0-.18-.09-1.05-.09-1.22 0-.47.06-.9.06-1.33 0-.17.06-1.33.06-1.49 0-.23-.09-1.25-.09-1.48 0-.87.09-1.1.15-1.22.09-.18.38-.73 1.03-.73.18 0 .94.04 1.12.04.23 0 1.41-.06 1.68-.06.21 0 1.24.06 1.44.06h1.09z"/>
      <path d="M240.61 157c0 .12.03.69.03.81 0 .27-.03.55-.35.76-.15.11-.5.23-.83.23-.12 0-.15 0-.53-.12-.29-.06-2.03-.2-2.06-.2-.27 0-.53.06-.94.29-.23.12-.62.35-.62 1.04 0 .43.33.98.59 1.31.29.2 1.68 1.22 1.68 1.25.12.08.21.23.33.31.09.06.21.09.33.17.09.06.53.52.62.64.23.2.5.38.74.61.68.67.74.73.94 1.04.58.93 1.0 1.72 1.0 3.63 0 .73-.03 1.28-.21 1.68 0 .06-.53 1.28-.56 1.31-.12.17-.47.61-.64.84-.54.66-1.39 1.27-1.45 1.31 0 0-1.62.79-2.33.93-.23.03-1.5.06-1.76.09-.17 0-.35.03-.5.03-.23 0-1.24-.12-1.47-.14-.89-.06-1.3-.09-1.88-.41-.44-.24-.5-.41-.5-.67 0-.12.03-.7.03-.81 0-.27-.03-.5-.03-.73 0-.17.09-.99.09-1.19 0-.09-.06-.55-.06-.66 0-.64.7-.67 1.44-.67.27 0 .68.04 1.21.21.15.06.29.11.47.14 0 0 1.2.04 1.33.04.15 0 .58 0 .97-.2.38-.2.7-.55.7-1.33 0-.29-.06-.47-.15-.73-.18-.43-.29-.59-.79-.96-.09-.08-.56-.52-.68-.61-.09-.08-.64-.41-.77-.49-.29-.2-1.65-1.42-1.94-1.72-.27-.2-.59-.52-.83-.9-.53-.78-.62-1.08-.77-1.63-.29-1.04-.35-1.28-.35-2 0-1.21.09-1.45.27-1.94.18-.52.5-1.33 1.32-2.04.91-.78 2.53-1.19 2.92-1.25.17-.03 1.62-.2 2.32-.2 1.09 0 2.47.26 2.94.41.56.18.68.29.74.58.03.08-.03.55-.03.67 0 .08.03.58.03.67v.61z"/>
      <path d="M244.32 170.29c.17 0 .35 0 .56-.03.17-.03.35-.06.53-.06.12 0 .71.09.83.09.06 0 .29-.03.35-.03 0 0 .27.06.39.09.18.03.23.03.35.17.11.18.17 1.09.17 2.76 0 .14 0 .52-.17 1.14-.06.17-.12.38-.18.55-.03.18-.06.37-.12.55-.06.11-.15.26-.21.37-.06.15-.09.29-.15.44-.03.06-.77 1.25-.88 1.48-.12.24-.27.47-.89.47-.12 0-.68-.06-.83-.06-.06 0-.38.03-.47.03-.27 0-.44-.29-.44-.5 0-.08.03-.12.23-.38.5-.64.95-1.8.95-2.06 0-.52-.27-.52-.44-.52-.44 0-.79-.06-.89-.47-.03-.17-.09-1.36-.09-1.57 0-.08.06-.61.06-.73 0-.18-.03-.93-.03-1.1 0-.5.5-.61.62-.64h.74z"/>
      <path d="M258.07 163.23c0-.14.03-.87.03-1.04 0-.38-.03-2.33-.03-2.79 0-.17.03-1.07.03-1.31 0-.26-.09-1.69-.09-2 0-.52.12-1.37.65-1.57.15-.06 2.36-.12 2.71-.12.12 0 .44.03.79.03.33.03.65.06.77.06.58 0 1.18-.12 1.76-.12.09 0 .53.03.62.03.06 0 .38-.03.47-.03.06 0 .44.06.53.06h.39c.47 0 1.18.17 1.29.24.12.03.23.09.35.11.24.06.48.09.71.17.15.09.29.2.44.26s.29.06.44.12c.12.06.27.14.39.2.15.09.33.12.47.17.23.12 2.71 1.57 3.85 4.15.06.12.68 1.57.74 1.74.12.41.33 1.86.33 2.21 0 .11-.03.64-.03.75 0 .17.06.9.06 1.07 0 .49-.03.61-.27 1.69-.18.96-.21 1.08-.35 1.37-.06.18-.15.31-.23.49s-.15.44-.23.64c-.12.2-.27.38-.41.59-.15.23-.27.47-.42.69-.15.2-1.32 1.49-1.44 1.6-.41.37-1.2.84-1.51.98-.29.11-.58.2-.88.29-.21.08-.42.18-.62.26-.33.11-.71.18-1.06.26-1.1.26-1.71.26-4.74.26h-.09c-.39 0-2.24-.09-2.68-.09h-.88c-.5 0-1.88 0-1.88-1.02 0-.14.06-.81.06-.96 0-.53-.09-2.88-.09-3.19 0-.09.03-.84.03-1.45.03-.7.06-1.49.06-2.21 0-.2-.09-1.13-.09-1.37 0-.11.06-.69.06-.84l.01-.4zm6.21-3.89c-.33.06-.35.09-.56.26-.35.33-.62.52-.71 1.57-.03.17 0 1.07 0 1.28 0 .32-.09 1.84-.09 2.18 0 1.07 0 2.93.12 3.95.06.81.15 1.63 3.15 1.63.23 0 .47 0 .71-.04.53-.08 1.62-.46 2.03-.69 1.65-.99 2.03-3.89 2.03-4.35 0-.17-.03-.99-.09-1.28-.06-.29-.15-.55-.21-.84-.03-.17-.06-.38-.12-.55-.12-.24-.29-.44-.44-.67-.09-.12-.15-.23-.21-.35-.29-.49-.47-.61-.97-.93-.15-.12-.85-.66-1.03-.76-.74-.37-2.24-.46-2.65-.46-.21 0-.59.03-.97.06z"/>
      <path d="M284.87 154.3c.12 0 .83-.06.97-.06s.89-.03 1.06-.03c.27 0 1.56.09 1.86.09.18 0 1.0-.06 1.18-.06.7 0 1.0.37 1.0.96 0 .11-.03.75-.03.9 0 .2.09 1.16.09 1.37 0 .35-.03.38-.33.75-.1.14-.22.23-.38.29-.23.09-.39.15-.7.15-.15 0-.74-.04-.89-.04-.18 0-1.08.06-1.32.06-.09 0-.21 0-.33-.03-.27 0-.5-.06-.77-.08-.26-.04-.5-.04-.76-.04-1.65 0-2.12.23-2.12 1.42 0 1.37 0 1.86.97 2 .65.09.71.09 1.09.09.23 0 1.33-.09 1.59-.09.18 0 1.14.12 1.35.12.38 0 .79-.06 1.18-.06.23 0 .68 0 .83.06.09.06.53.35.53.87 0 0-.03.67-.06.81-.03.47-.03.55-.03 1.16 0 .24-.03.29-.06.59-.06.38-.15 1.02-1.3 1.04h-1.5c-.12 0-.64-.03-.76-.03-.09 0-.55.03-.62.03-.12 0-.79-.1-.95-.1-.29 0-.58.06-.89.06h-.23c-.18 0-.5.09-.62.15-.52.24-.52.96-.52 1.22 0 1.86 0 2.49 2.35 2.49.18 0 1.03-.03 1.2-.03.15 0 .83.03 1.0.03.21 0 1.35-.03 1.56-.06.21-.04.41-.04.62-.04.15 0 .94.04 1.21.55.2.41.2.96.2 1.22v.21c.03.26.12.55.15.81v.76c0 .35-.03.96-1.0.96-.06 0-.27-.03-.47-.04-.21-.03-.44-.03-.53-.03-.1 0-.38.04-.68.04-.29.03-.59.06-.71.06-.09 0-.39-.03-.68-.03s-.59-.03-.71-.03c0 0-.64.03-1.26.04-.65.03-1.33.06-1.47.06-.18 0-.71-.04-1.27-.06-.53 0-1.09-.04-1.3-.04h-.94c-.38.04-.79.04-.94.04s-.56 0-.85-.27c-.23-.2-.47-.69-.47-1.1 0-.12.03-.67.03-.79 0-.35-.06-.66-.06-1.02v-.52c0-.2-.06-1.1-.06-1.3 0-.5.03-1.25.03-1.74 0-.12.03-.64.03-.76 0-.17-.03-1.02-.03-1.21 0-.14-.03-.9-.03-1.08v-2c0-.17 0-.32.03-.49 0-.12.06-.67.06-.78 0-.18-.09-1.05-.09-1.22 0-.47.06-.9.06-1.33 0-.17.06-1.33.06-1.49 0-.23-.09-1.25-.09-1.48 0-.87.09-1.1.15-1.22.09-.18.39-.73 1.03-.73.18 0 .94.04 1.12.04.23 0 1.41-.06 1.68-.06.21 0 1.24.06 1.44.06h1.09z"/>
      <path d="M303.76 157c0 .12.03.69.03.81 0 .27-.03.55-.35.76-.15.11-.5.23-.83.23-.12 0-.15 0-.53-.12-.29-.06-2.03-.2-2.06-.2-.27 0-.52.06-.94.29-.23.12-.62.35-.62 1.04 0 .43.33.98.59 1.31.29.2 1.68 1.22 1.68 1.25.12.08.21.23.33.31.09.06.2.09.33.17.09.06.52.52.62.64.23.2.5.38.74.61.68.67.73.73.94 1.04.59.93 1.0 1.72 1.0 3.63 0 .73-.03 1.28-.21 1.68 0 .06-.53 1.28-.56 1.31-.12.17-.47.61-.64.84-.54.66-1.39 1.27-1.45 1.31 0 0-1.62.79-2.32.93-.23.03-1.5.06-1.76.09-.18 0-.35.03-.5.03-.23 0-1.24-.12-1.47-.14-.88-.06-1.3-.09-1.88-.41-.44-.24-.5-.41-.5-.67 0-.12.03-.7.03-.81 0-.27-.03-.5-.03-.73 0-.17.09-.99.09-1.19 0-.09-.06-.55-.06-.66 0-.64.71-.67 1.44-.67.27 0 .68.04 1.21.21.15.06.29.11.47.14 0 0 1.2.04 1.33.04.15 0 .58 0 .97-.2.38-.2.71-.55.71-1.33 0-.29-.06-.47-.15-.73-.18-.43-.29-.59-.79-.96-.09-.08-.56-.52-.68-.61-.09-.08-.65-.41-.77-.49-.29-.2-1.65-1.42-1.94-1.72-.27-.2-.59-.52-.83-.9-.53-.78-.62-1.08-.77-1.63-.29-1.04-.35-1.28-.35-2 0-1.21.09-1.45.27-1.94.18-.52.5-1.33 1.32-2.04.91-.78 2.53-1.19 2.92-1.25.18-.03 1.62-.2 2.32-.2 1.09 0 2.47.26 2.94.41.56.18.68.29.74.58.03.08-.03.55-.03.67 0 .08.03.58.03.67v.61z"/>
      <path d="M315.09 164.48c0-.35 0-.58.06-.84 0-.14.03-.29.03-.41.03-.08-.03-.49-.03-.58 0-.15.03-.73.03-.87 0-.14-.09-.87-.09-1.02 0-.17 0-1.08.03-1.25 0-.14-.03-.73-.03-.87v-.41c0-.29-.15-1.68-.15-2 0-.98.18-1.28.79-1.63.32-.15.69-.23 1.12-.23.09 0 .62-.06.74-.06.17-.03 1.03 0 1.24 0 .06 0 .97-.06 1.09-.06.17 0 2.06-.08 2.18-.08.33 0 .68.03 1.03.03 1.76.06 1.94.06 3.3.52.85.29.94.35 1.7.81.68.38.85.49 1.14.76.74.61 1.74 2.21 1.94 3.08.09.41.09.84.15 1.25.12.55.12 1.1.12 1.65 0 1.28-.29 1.97-.62 2.7-.21.47-.35.81-.35.84-.15.23-.33.41-.5.64-.18.24-.33.46-.5.69-.27.29-.53.47-1.24.94-1.24.81-1.47.84-3.48 1.16-.26.03-1.12.09-1.35.09-.21 0-1.2-.12-1.43-.12-.06 0-.74 0-.89.04-.62.11-.71.2-.89.41-.33.29-.33.35-.38.84-.03.26-.06.35-.06.43 0 .06.12.93.12 1.14.03.14.03.2.03.55 0 .11.06.73.06.84 0 1.04-.18 1.34-2.06 1.34-.2 0-1.24-.06-1.47-.06-.12 0-.62.06-.74.06-.33 0-.77-.47-.77-1.1 0-.41.09-2.35.09-2.79 0-.18-.06-1.01-.06-1.19s.03-.96.03-1.14c0-.14-.03-.84-.03-.98 0-.35.09-2.12.09-2.5v-.61zm6.21-6.13c-.5.14-.65.17-.91.58-.41.61-.41.79-.41 2.7v.49c0 .06.03.43.06.52 0 .24 0 .44.06.67.06.29.41 1.04.85 1.31.03.03.85.41 2.06.41.17 0 1.38-.12 1.56-.18.2-.06.39-.17.56-.26.44-.2.5-.2.64-.38.09-.09.15-.21.23-.32.15-.18.33-.29.44-.49.06-.12.06-.23.12-.35.18-.67.23-1.07.23-1.83v-.14c-.03-.15-.5-1.28-.5-1.31-.12-.2-.21-.29-.41-.47-.71-.61-.85-.73-1.91-.92-.35-.06-.47-.06-1.45-.1-.08 0-.58-.06-.68-.06-.12 0-.15 0-.56.12z"/>
      <path d="M333.46 162.42c0-.96.12-1.88.15-2.84 0-.35-.03-2-.03-2.38 0-.17-.06-.98-.06-1.16 0-.81 0-1.86 1.2-1.86.12 0 .65.06.77.06s.68-.03.79-.03c.18 0 1.06.03 1.27.03h.97c.15 0 .88-.03 1.06-.03.33 0 .83-.03 1.14-.03.21 0 1.62.06 1.82.12.23.03 1.21.29 1.5.38.21.11 1.32.61 1.39.64.47.26 1.06.75 1.24.93.06.09.85 1.16.91 1.25.09.12.68 1.37.71 2.24 0 .09-.03.55-.03.64 0 .18.06.98.06 1.16 0 .64-.35 2.23-.74 2.99-.27.47-.97 1.31-1.3 1.65-1.03 1.07-1.14 1.19-1.14 1.56 0 .41.27.61.53.82.62.47 1.41.84 1.62.9.18.06.33.09.5.14.44.26.44.67.44.87 0 .2-.03.43-.03.63 0 .12.06.64.06.76 0 .18-.09 1.08-.09 1.28 0 .09.03.52.03.61 0 .9-1.09 1.02-1.24 1.02-1.26 0-2.44-.93-2.65-1.1-.44-.35-1.33-1.13-1.89-1.77-.09-.12-.21-.26-.33-.35-.17-.14-.35-.26-.56-.37-.09-.09-.56-.47-.64-.53-.77-.49-1.03-.52-1.47-.52-.15 0-.39.12-.44.15-.27.17-.33.31-.44.58-.17.38-.21.47-.21 1.28 0 .2 0 .26.09.87.03.12.15.79.15.93 0 .55-.42.82-.79.82-.21 0-.41-.06-.62-.09-.18-.03-.38-.06-.59-.06 0 0-.56.03-.62.03-.21.03-.39.03-.68.03-.15 0-.91.04-1.06.04-.74 0-.88-.73-.88-1.02 0-.23.06-.47.09-.7.03-.2.03-.41.03-.58 0-.18-.03-.99-.03-1.19 0-.38.03-.78.06-1.19.03-.49.06-.84.06-.98 0-.43-.06-.9-.06-1.33 0-.32-.03-1.51-.03-1.83 0-.15.03-.84.03-1.02 0-.18-.06-1.04-.06-1.25 0-.35 0-.78.03-1.16zm5.57-3.6c-.33.14-.35.2-.5.52-.21.49-.23.58-.23.93 0 .2.06 1.19.06 1.42 0 .2-.06 1.16-.06 1.37 0 .23.09 1.36.09 1.63.03.26.06.69.53.84.15.06.83.08.83.08.09 0 .29-.02.58-.06.27-.06.33-.08.68-.23.15-.06.27-.12.41-.17.12-.08.23-.24.39-.32.12-.14.27-.23.38-.35.27-.2.33-.29.79-1.1.21-.37.59-1.07.59-2.15 0-.55-.33-1.86-1.62-2.26-.62-.17-.71-.2-1.14-.2-.06 0-1.21-.11-1.24-.11-.12 0-.33.09-.52.18z"/>
      <path d="M350.55 161.35c0-.2.09-1.19.09-1.39 0-.43-.06-.87-.06-1.31 0-.14.09-.9.09-1.04 0-.29-.12-1.68-.12-1.98 0-.49.33-1.22.79-1.28.09 0 .47.04.53.04.15 0 .88-.04 1.03-.04.39 0 .79.04 1.18.04.09 0 .53-.04.65-.04.33 0 .44.15.59.32.23.29.35.43.35.9 0 .15-.03.87-.03 1.05 0 .14.03.81.03.98 0 .2-.06 1.19-.06 1.42 0 .67.06 1.37.06 2.04 0 .2-.03 1.07-.03 1.28v1.1c0 .17-.03 1.07-.03 1.28 0 .27.06 1.51.06 1.8 0 .26-.03 1.74-.03 1.97-.03.26-.06.52-.06.78 0 .18.06 1.04.06 1.25v2.38c0 .14.09.84.09 1.02 0 .52-.5.84-.91.84-.09 0-.62-.06-.74-.06-.18 0-1.0.06-1.18.06-.12 0-.68-.06-.79-.06-.09 0-.56.06-.65.06-.62 0-.91-.49-.94-.73-.03-.06-.03-.61-.03-.64 0-.29.03-.55.06-.81.03-.38.06-.76.06-1.14 0-.46-.06-2.78-.06-3.33 0-.06.06-.41.06-.5 0-.12-.09-.61-.09-.73 0-.32.12-1.94.12-2.32 0-.7-.09-1.37-.09-2.03l.01-1.19z"/>
      <path d="M357.82 154.3c.09 0 .29.03.5.03.21.03.44.06.5.06.21 0 .74-.03 1.26-.06.53 0 1.09-.03 1.27-.03.23 0 .62 0 .95.29.27.23.79 1.31.97 1.65.12.29.23.59.38.84.09.2.23.41.35.59.15.26.38.69.41.75.27.55.74 1.14 1.09 1.14.12 0 .21-.06.33-.24.27-.41.52-.84.73-1.25.12-.2.44-.84.53-.96.06-.14.18-.26.27-.38.09-.17.65-1.1.79-1.39.06-.12.09-.26.18-.38.09-.17.53-.61.83-.66.06-.04 1.12-.04 1.26-.04.12 0 .77.06.89.06.12 0 .71-.06.83-.06.09 0 .56.04.68.04.06 0 .44-.04.53-.04.15 0 .62.04.62.61 0 .32-.15.61-.23.79-.21.35-.41.64-.65.96-.21.29-.41.59-.59.9-.41.67-.79 1.37-1.2 2.04-.17.31-.38.61-.59.9-.58.78-.64.87-1.03 1.63-.21.41-1.06 1.71-1.14 1.76-.06.09-.15.15-.17.24-.03.03-.12.35-.12.43 0 .21.15.41.29.59.71.87.79 1.01 1.56 2.21.29.47.74 1.19 1.03 1.65.21.35.47.67.71 1.05.09.14.5.99.62 1.16.03.09.39.64.59.96.21.35.47.67.71.98.12.17.44.67.44 1.14 0 .23-.06.52-.47.52-.09 0-.5-.04-.62-.04-.15-.03-.94 0-1.12 0-.15 0-.95-.06-1.12-.06-.15 0-.83.06-.97.06-.23 0-.56-.03-.97-.47-.44-.47-1.03-1.56-1.12-1.76-.12-.2-.74-1.08-.85-1.28-.15-.23-.27-.49-.41-.73-.09-.14-.56-.87-.65-1.04-.09-.11-.44-.58-.58-.58-.23 0-.41.35-.53.61-.15.33-1.62 3.08-1.62 3.08-.18.38-.29.76-.47 1.14-.12.26-.27.49-.44.73-.33.31-.44.31-1.26.31-.12 0-.53-.03-.65-.03-.09 0-.52.03-.62.03s-.58-.03-.68-.03c-.18 0-.91.09-1.06.09-.7 0-1.12-.47-1.12-.7 0-.29.17-.58.41-.98.17-.26.29-.52.47-.78.12-.2.29-.41.41-.61.56-.82 1.09-1.63 1.53-2.5.15-.29.27-.61.44-.87.12-.24.27-.47.41-.69.12-.2.21-.41.33-.61.12-.26.27-.49.44-.73.23-.32.27-.38.59-.9.06-.12.53-.76.53-.93 0-.15-.15-.35-.27-.52-.06-.06-.64-1.07-.68-1.16-.09-.12-.12-.26-.18-.38s-.15-.21-.21-.32c-.12-.2-.21-.41-.33-.61-.09-.14-.17-.29-.27-.43-.7-1.13-1.06-1.72-1.47-2.64-.12-.23-.21-.47-.35-.7-.15-.26-.35-.52-.53-.78-.18-.24-.29-.47-.44-.7-.41-.61-.56-.84-.56-1.21 0-.38.33-.73.71-.73z"/>
      <path d="M385.77 154.35c.12 0 .79.06.95.06.17 0 .97-.06 1.14-.06.77 0 .97.49 1.03.64.06.17.06.31.06 1.59 0 .24 0 .32-.12 1.14-.06.31-.12 1.97-.15 2.35-.03.49-.09 1.02-.12 1.53-.03.29-.06 1.72-.12 2.04-.09.76-.12 1.01-.12 1.25 0 .23-.15 1.86-.15 1.88-.03.32-.03.67-.06 1.02-.17 1.37-.29 1.63-1.86 1.63-.5 0-.97-.26-1.03-.38-.09-.12-.33-2.61-.41-3.05-.03-.2-.06-.38-.09-.55-.06-.41-.03-.82-.09-1.22-.03-.47-.27-2.67-.29-3.17 0-.26 0-.52-.03-.78-.03-.2-.15-1.31-.18-1.54l-.06-1.39c0-.12-.09-.69-.09-.81-.03-.21-.03-.52-.03-.96 0-.47 0-1.22.91-1.22h.89zm2.03 15.88s.91 0 .91.84c0 .14.03 1.01.03 1.19 0 .2-.06 1.22-.06 1.45 0 .32-.03 1.04-.68 1.04-.09 0-.53-.06-.62-.06-.17 0-1.08.06-1.3.06-1.03 0-1.88 0-1.88-.9 0-.24 0-.58-.03-.81 0-.29.03-1.63.03-1.94 0-.94.79-.9 1.24-.87.21.04 1.06 0 1.27 0 .09 0 .52.04.62.04.06 0 .39-.04.47-.04z"/>
    </g>
  </g>
</svg>
